<?xml version="1.0" encoding="utf-8"?>
<!-- Generator: Adobe Illustrator 19.2.1, SVG Export Plug-In . SVG Version: 6.00 Build 0)  -->
<svg version="1.1" xmlns="http://www.w3.org/2000/svg" xmlns:xlink="http://www.w3.org/1999/xlink" x="0px" y="0px"
	 viewBox="0 0 283.5 255.1" enable-background="new 0 0 283.5 255.1" xml:space="preserve">
<g id="Edges">
	<g>
		<g>
			<g>
				<g>
					<g>
						<polyline fill="none" stroke="#E3111C" stroke-width="3" stroke-linecap="round" stroke-linejoin="round" points="44.1,14.6 
							44.1,12.6 46.1,12.6 						"/>
						
							<line fill="none" stroke="#E3111C" stroke-width="3" stroke-linecap="round" stroke-linejoin="round" stroke-dasharray="4.1154,8.2308" x1="54.4" y1="12.6" x2="112" y2="12.6"/>
						<polyline fill="none" stroke="#E3111C" stroke-width="3" stroke-linecap="round" stroke-linejoin="round" points="116.1,12.6 
							118.1,12.6 118.8,14.5 						"/>
						
							<line fill="none" stroke="#E3111C" stroke-width="3" stroke-linecap="round" stroke-linejoin="round" stroke-dasharray="3.9,7.7999" x1="121.4" y1="21.8" x2="159.2" y2="128.4"/>
						<polyline fill="none" stroke="#E3111C" stroke-width="3" stroke-linecap="round" stroke-linejoin="round" points="
							160.5,132.1 161.2,134 161.9,132.1 						"/>
						
							<line fill="none" stroke="#E3111C" stroke-width="3" stroke-linecap="round" stroke-linejoin="round" stroke-dasharray="3.9011,7.8022" x1="164.5" y1="124.7" x2="202.5" y2="18.2"/>
						<polyline fill="none" stroke="#E3111C" stroke-width="3" stroke-linecap="round" stroke-linejoin="round" points="203.8,14.5 
							204.5,12.6 206.5,12.6 						"/>
						
							<line fill="none" stroke="#E3111C" stroke-width="3" stroke-linecap="round" stroke-linejoin="round" stroke-dasharray="4.1039,8.2077" x1="214.7" y1="12.6" x2="272.1" y2="12.6"/>
						<polyline fill="none" stroke="#E3111C" stroke-width="3" stroke-linecap="round" stroke-linejoin="round" points="276.2,12.6 
							278.2,12.6 278.2,14.6 						"/>
						
							<line fill="none" stroke="#E3111C" stroke-width="3" stroke-linecap="round" stroke-linejoin="round" stroke-dasharray="4.0888,8.1776" x1="278.2" y1="22.8" x2="278.2" y2="215"/>
						<polyline fill="none" stroke="#E3111C" stroke-width="3" stroke-linecap="round" stroke-linejoin="round" points="278.2,219 
							278.2,221 276.2,221 						"/>
						
							<line fill="none" stroke="#E3111C" stroke-width="3" stroke-linecap="round" stroke-linejoin="round" stroke-dasharray="4.4468,8.8935" x1="267.3" y1="221" x2="231.7" y2="221"/>
						<polyline fill="none" stroke="#E3111C" stroke-width="3" stroke-linecap="round" stroke-linejoin="round" points="227.3,221 
							225.3,221 225.3,219 						"/>
						
							<line fill="none" stroke="#E3111C" stroke-width="3" stroke-linecap="round" stroke-linejoin="round" stroke-dasharray="3.9546,7.9092" x1="225.3" y1="211.1" x2="225.1" y2="96.5"/>
						<polyline fill="none" stroke="#E3111C" stroke-width="3" stroke-linecap="round" stroke-linejoin="round" points="225.1,92.5 
							225.1,90.5 224.5,92.4 						"/>
						
							<line fill="none" stroke="#E3111C" stroke-width="3" stroke-linecap="round" stroke-linejoin="round" stroke-dasharray="3.8278,7.6555" x1="222" y1="99.6" x2="182.3" y2="215.5"/>
						<polyline fill="none" stroke="#E3111C" stroke-width="3" stroke-linecap="round" stroke-linejoin="round" points="
							181.1,219.2 180.5,221 178.5,221 						"/>
						
							<line fill="none" stroke="#E3111C" stroke-width="3" stroke-linecap="round" stroke-linejoin="round" stroke-dasharray="4.5161,9.0321" x1="169.4" y1="221" x2="146.8" y2="221"/>
						<polyline fill="none" stroke="#E3111C" stroke-width="3" stroke-linecap="round" stroke-linejoin="round" points="142.3,221 
							140.3,221 139.7,219.1 						"/>
						
							<line fill="none" stroke="#E3111C" stroke-width="3" stroke-linecap="round" stroke-linejoin="round" stroke-dasharray="4.1301,8.2602" x1="137.1" y1="211.3" x2="99.2" y2="97.7"/>
						<polyline fill="none" stroke="#E3111C" stroke-width="3" stroke-linecap="round" stroke-linejoin="round" points="97.9,93.8 
							97.2,91.9 97.2,93.9 						"/>
						
							<line fill="none" stroke="#E3111C" stroke-width="3" stroke-linecap="round" stroke-linejoin="round" stroke-dasharray="3.9115,7.8231" x1="97.2" y1="101.7" x2="97.2" y2="215.1"/>
						<polyline fill="none" stroke="#E3111C" stroke-width="3" stroke-linecap="round" stroke-linejoin="round" points="97.2,219 
							97.2,221 95.2,221 						"/>
						
							<line fill="none" stroke="#E3111C" stroke-width="3" stroke-linecap="round" stroke-linejoin="round" stroke-dasharray="4.4647,8.9293" x1="86.3" y1="221" x2="50.6" y2="221"/>
						<polyline fill="none" stroke="#E3111C" stroke-width="3" stroke-linecap="round" stroke-linejoin="round" points="46.1,221 
							44.1,221 44.1,219 						"/>
						
							<line fill="none" stroke="#E3111C" stroke-width="3" stroke-linecap="round" stroke-linejoin="round" stroke-dasharray="4.0888,8.1776" x1="44.1" y1="210.9" x2="44.1" y2="18.7"/>
					</g>
				</g>
			</g>
		</g>
		<g>
			<g>
				
					<line fill="none" stroke="#E3111C" stroke-width="3" stroke-linecap="round" stroke-linejoin="round" x1="44.1" y1="12.6" x2="42.4" y2="13.7"/>
				
					<line fill="none" stroke="#E3111C" stroke-width="3" stroke-linecap="round" stroke-linejoin="round" stroke-dasharray="3.6034,7.2069" x1="36.5" y1="17.9" x2="12.9" y2="34.4"/>
				
					<line fill="none" stroke="#E3111C" stroke-width="3" stroke-linecap="round" stroke-linejoin="round" x1="10" y1="36.5" x2="8.3" y2="37.6"/>
			</g>
		</g>
		<g>
			<g>
				
					<line fill="none" stroke="#E3111C" stroke-width="3" stroke-linecap="round" stroke-linejoin="round" x1="118" y1="12.6" x2="116.3" y2="13.7"/>
				
					<line fill="none" stroke="#E3111C" stroke-width="3" stroke-linecap="round" stroke-linejoin="round" stroke-dasharray="3.853,7.706" x1="110" y1="18.2" x2="84.7" y2="35.8"/>
				
					<line fill="none" stroke="#E3111C" stroke-width="3" stroke-linecap="round" stroke-linejoin="round" x1="81.6" y1="38" x2="79.9" y2="39.2"/>
			</g>
		</g>
		<g>
			<g>
				
					<line fill="none" stroke="#E3111C" stroke-width="3" stroke-linecap="round" stroke-linejoin="round" x1="206.3" y1="12.6" x2="204.7" y2="13.7"/>
				
					<line fill="none" stroke="#E3111C" stroke-width="3" stroke-linecap="round" stroke-linejoin="round" stroke-dasharray="3.853,7.706" x1="198.4" y1="18.2" x2="173.1" y2="35.8"/>
				
					<line fill="none" stroke="#E3111C" stroke-width="3" stroke-linecap="round" stroke-linejoin="round" x1="170" y1="38" x2="168.3" y2="39.2"/>
			</g>
		</g>
		<g>
			<g>
				
					<line fill="none" stroke="#E3111C" stroke-width="3" stroke-linecap="round" stroke-linejoin="round" x1="278.2" y1="12.6" x2="276.6" y2="13.7"/>
				
					<line fill="none" stroke="#E3111C" stroke-width="3" stroke-linecap="round" stroke-linejoin="round" stroke-dasharray="3.853,7.706" x1="270.3" y1="18.2" x2="245" y2="35.8"/>
				
					<line fill="none" stroke="#E3111C" stroke-width="3" stroke-linecap="round" stroke-linejoin="round" x1="241.8" y1="38" x2="240.2" y2="39.2"/>
			</g>
		</g>
		<g>
			<g>
				
					<line fill="none" stroke="#E3111C" stroke-width="3" stroke-linecap="round" stroke-linejoin="round" x1="278.2" y1="221" x2="276.5" y2="222.1"/>
				
					<line fill="none" stroke="#E3111C" stroke-width="3" stroke-linecap="round" stroke-linejoin="round" stroke-dasharray="3.7134,7.4268" x1="270.2" y1="226" x2="244.9" y2="241.6"/>
				
					<line fill="none" stroke="#E3111C" stroke-width="3" stroke-linecap="round" stroke-linejoin="round" x1="241.8" y1="243.5" x2="240.1" y2="244.6"/>
			</g>
		</g>
		<g>
			<g>
				
					<line fill="none" stroke="#E3111C" stroke-width="3" stroke-linecap="round" stroke-linejoin="round" x1="180.4" y1="220.9" x2="178.7" y2="222"/>
				
					<line fill="none" stroke="#E3111C" stroke-width="3" stroke-linecap="round" stroke-linejoin="round" stroke-dasharray="3.7134,7.4268" x1="172.4" y1="225.9" x2="147.1" y2="241.5"/>
				
					<line fill="none" stroke="#E3111C" stroke-width="3" stroke-linecap="round" stroke-linejoin="round" x1="144" y1="243.4" x2="142.3" y2="244.5"/>
			</g>
		</g>
		<g>
			<g>
				
					<line fill="none" stroke="#E3111C" stroke-width="3" stroke-linecap="round" stroke-linejoin="round" x1="97.9" y1="220.9" x2="96.2" y2="222"/>
				
					<line fill="none" stroke="#E3111C" stroke-width="3" stroke-linecap="round" stroke-linejoin="round" stroke-dasharray="3.7134,7.4268" x1="89.9" y1="225.9" x2="64.6" y2="241.5"/>
				
					<line fill="none" stroke="#E3111C" stroke-width="3" stroke-linecap="round" stroke-linejoin="round" x1="61.4" y1="243.4" x2="59.7" y2="244.5"/>
			</g>
		</g>
	</g>
</g>
<g id="Base">
	<g>
		<path fill="#E30613" d="M6.3,37.7h74L123.3,159l43.2-121.4h73.8v208.4h-52.9l-0.2-130.5l-44.7,130.5h-40.1L59.4,116.9v129.2H6.3
			V37.7z"/>
	</g>
</g>
<g id="Text">
	<g>
		<path fill="#FFFFFF" d="M196.7,221.6h36.7c0.5,0,0.9,0.5,0.9,1.2v2.3c0,0.7-0.4,1.2-0.9,1.2h-16.5v7.5h16.5c0.5,0,0.9,0.5,0.9,1.2
			v2.3c0,0.7-0.4,1.2-0.9,1.2h-36.7c-0.1,0-0.1,0-0.1,0c-0.5,0-0.9-0.5-0.9-1.2v-2.3c0-0.7,0.5-1.2,0.9-1.2h16.5v-7.5h-16.5
			c-0.5,0-0.9-0.5-0.9-1.2v-2.3C195.8,222.1,196.2,221.6,196.7,221.6z"/>
		<path fill="#FFFFFF" d="M199.5,210.8h13.7v-6.4c0-0.7,0.4-1.2,0.9-1.2h1.9c0.5,0,0.9,0.5,0.9,1.2v6.4h13.7v-6.4
			c0-0.7,0.5-1.2,0.9-1.2h1.9c0.5,0,0.9,0.5,0.9,1.2v8.7c0,1.3-0.8,2.3-1.9,2.3h-34.9c-1,0-1.9-1-1.9-2.3v-8.7
			c0-0.7,0.5-1.2,0.9-1.2h1.9c0.5,0,0.9,0.5,0.9,1.2V210.8z"/>
		<path fill="#FFFFFF" d="M233.4,192.6c0.5,0,0.9,0.5,0.9,1.2v2.3c0,0.7-0.4,1.2-0.9,1.2h-36.7c-0.1,0-0.1,0-0.1,0
			c-0.5,0-0.9-0.5-0.9-1.2v-2.3c0-0.7,0.5-1.2,0.9-1.2H233.4z"/>
		<path fill="#FFFFFF" d="M202.5,169.6h25.2c3.7,0,6.7,3.7,6.7,8.4v6.1c0,1.2-0.8,2.3-1.9,2.3h-34.9c-1,0-1.9-1.1-1.9-2.3V178
			C195.8,173.3,198.8,169.6,202.5,169.6z M202.5,174.3c-1.7,0-3,1.7-3,3.7v3.8h31.1V178c0-2-1.3-3.7-3-3.7H202.5z"/>
		<path fill="#FFFFFF" d="M199.5,158.9h13.7v-6.4c0-0.7,0.4-1.2,0.9-1.2h1.9c0.5,0,0.9,0.5,0.9,1.2v6.4h13.7v-6.4
			c0-0.7,0.5-1.2,0.9-1.2h1.9c0.5,0,0.9,0.5,0.9,1.2v8.7c0,1.3-0.8,2.3-1.9,2.3h-34.9c-1,0-1.9-1-1.9-2.3v-8.7
			c0-0.7,0.5-1.2,0.9-1.2h1.9c0.5,0,0.9,0.5,0.9,1.2V158.9z"/>
		<path fill="#FFFFFF" d="M231.6,133.1h1.9c0.5,0,0.9,0.5,0.9,1.2v8.6c0,1.3-0.8,2.3-1.9,2.3h-35.8c-0.5,0-0.9-0.5-0.9-1.2v-2.3
			c0-0.6,0.5-1.2,0.9-1.2h33.9v-6.3C230.6,133.6,231.1,133.1,231.6,133.1z"/>
		<path fill="#FFFFFF" d="M210.2,110.9c1.9,0,3.7,1,4.9,2.6c1.2-1.6,2.9-2.6,4.8-2.6h7.8c3.7,0,6.7,3.8,6.7,8.4v6.1
			c0,1.2-0.8,2.3-1.9,2.3h-34.9c-1,0-1.9-1.1-1.9-2.3v-6.1c0-4.6,3-8.4,6.7-8.4H210.2z M202.5,115.6c-1.7,0-3,1.7-3,3.7v3.8h13.7
			v-3.8c0-2-1.3-3.7-3-3.7H202.5z M216.9,119.3v3.8h13.7v-3.8c0-2-1.3-3.7-3-3.7h-7.8C218.3,115.6,216.9,117.3,216.9,119.3z"/>
		<path fill="#FFFFFF" d="M199.5,100.2h13.7v-6.4c0-0.7,0.4-1.2,0.9-1.2h1.9c0.5,0,0.9,0.5,0.9,1.2v6.4h13.7v-6.4
			c0-0.7,0.5-1.2,0.9-1.2h1.9c0.5,0,0.9,0.5,0.9,1.2v8.7c0,1.3-0.8,2.3-1.9,2.3h-34.9c-1,0-1.9-1-1.9-2.3v-8.7
			c0-0.7,0.5-1.2,0.9-1.2h1.9c0.5,0,0.9,0.5,0.9,1.2V100.2z"/>
		<path fill="#FFFFFF" d="M210.2,70.1c1.9,0,3.6,1,4.8,2.6c1.2-1.6,3-2.6,4.9-2.6h13.5c0.5,0,0.9,0.5,0.9,1.2v2.3
			c0,0.7-0.4,1.2-0.9,1.2h-13.5c-1.7,0-3,1.7-3,3.7v3.7h16.5c0.5,0,0.9,0.6,0.9,1.2v2.3c0,0.7-0.4,1.2-0.9,1.2h-35.8
			c-1,0-1.9-1-1.9-2.3v-6.1c0-4.7,3-8.4,6.7-8.4H210.2z M202.5,74.8c-1.7,0-3,1.7-3,3.7v3.7h13.7v-3.7c0-2-1.3-3.7-3-3.7H202.5z"/>
		<path fill="#FFFFFF" d="M204.4,51.9h-2c-1.6,0-3,1.7-3,3.7c0,2,1.3,3.7,3,3.7h25.2c1.6,0,3-1.7,3-3.7c0-2-1.3-3.7-3-3.7h-10.8v2.6
			c0,0.7-0.4,1.2-0.9,1.2H214c-0.5,0-0.9-0.5-0.9-1.2v-6.1c0-0.7,0.4-1.2,0.9-1.2h13.6c3.7,0,6.7,3.8,6.7,8.4c0,4.6-3,8.4-6.7,8.4
			h-25.2c-3.7,0-6.7-3.8-6.7-8.4c0-4.6,3-8.4,6.7-8.4h2c0.5,0,0.9,0.5,0.9,1.2v2.3C205.3,51.4,204.9,51.9,204.4,51.9z"/>
	</g>
</g>
</svg>
