<?xml version="1.0" encoding="utf-8"?>
<!-- Generator: Adobe Illustrator 19.2.1, SVG Export Plug-In . SVG Version: 6.00 Build 0)  -->
<svg version="1.2" baseProfile="tiny" xmlns="http://www.w3.org/2000/svg" xmlns:xlink="http://www.w3.org/1999/xlink" x="0px"
	 y="0px" viewBox="0 0 991.5 276.3" xml:space="preserve">
<g id="Edges">
	<g>
		
			<line fill="none" stroke="#E3111C" stroke-width="3" stroke-linecap="round" stroke-linejoin="round" x1="52.1" y1="12.5" x2="50.4" y2="13.6"/>
		
			<line fill="none" stroke="#E3111C" stroke-width="3" stroke-linecap="round" stroke-linejoin="round" stroke-dasharray="3.6034,7.2069" x1="44.5" y1="17.8" x2="20.9" y2="34.3"/>
		
			<line fill="none" stroke="#E3111C" stroke-width="3" stroke-linecap="round" stroke-linejoin="round" x1="18" y1="36.3" x2="16.3" y2="37.5"/>
	</g>
	<g>
		
			<line fill="none" stroke="#E3111C" stroke-width="3" stroke-linecap="round" stroke-linejoin="round" x1="126" y1="12.5" x2="124.3" y2="13.6"/>
		
			<line fill="none" stroke="#E3111C" stroke-width="3" stroke-linecap="round" stroke-linejoin="round" stroke-dasharray="3.853,7.706" x1="118" y1="18" x2="92.7" y2="35.7"/>
		
			<line fill="none" stroke="#E3111C" stroke-width="3" stroke-linecap="round" stroke-linejoin="round" x1="89.6" y1="37.9" x2="87.9" y2="39.1"/>
	</g>
	<g>
		
			<line fill="none" stroke="#E3111C" stroke-width="3" stroke-linecap="round" stroke-linejoin="round" x1="212.2" y1="12.5" x2="210.6" y2="13.7"/>
		
			<line fill="none" stroke="#E3111C" stroke-width="3" stroke-linecap="round" stroke-linejoin="round" stroke-dasharray="3.6961,7.3922" x1="204.7" y1="18.1" x2="180.9" y2="35.7"/>
		
			<line fill="none" stroke="#E3111C" stroke-width="3" stroke-linecap="round" stroke-linejoin="round" x1="177.9" y1="37.9" x2="176.3" y2="39.1"/>
	</g>
	<g>
		
			<line fill="none" stroke="#E3111C" stroke-width="3" stroke-linecap="round" stroke-linejoin="round" x1="983" y1="12.5" x2="981.4" y2="13.7"/>
		
			<line fill="none" stroke="#E3111C" stroke-width="3" stroke-linecap="round" stroke-linejoin="round" stroke-dasharray="3.853,7.706" x1="975.1" y1="18.1" x2="949.8" y2="35.7"/>
		
			<line fill="none" stroke="#E3111C" stroke-width="3" stroke-linecap="round" stroke-linejoin="round" x1="946.6" y1="37.9" x2="945" y2="39.1"/>
	</g>
	<g>
		
			<line fill="none" stroke="#E3111C" stroke-width="3" stroke-linecap="round" stroke-linejoin="round" x1="983" y1="220" x2="981.3" y2="221.1"/>
		
			<line fill="none" stroke="#E3111C" stroke-width="3" stroke-linecap="round" stroke-linejoin="round" stroke-dasharray="3.684,7.368" x1="975.2" y1="225.1" x2="950.6" y2="241.4"/>
		
			<line fill="none" stroke="#E3111C" stroke-width="3" stroke-linecap="round" stroke-linejoin="round" x1="947.5" y1="243.4" x2="945.9" y2="244.5"/>
	</g>
	<g>
		
			<line fill="none" stroke="#E3111C" stroke-width="3" stroke-linecap="round" stroke-linejoin="round" x1="286.2" y1="220.9" x2="284.5" y2="222"/>
		
			<line fill="none" stroke="#E3111C" stroke-width="3" stroke-linecap="round" stroke-linejoin="round" stroke-dasharray="3.7134,7.4268" x1="278.2" y1="225.9" x2="252.9" y2="241.5"/>
		
			<line fill="none" stroke="#E3111C" stroke-width="3" stroke-linecap="round" stroke-linejoin="round" x1="249.8" y1="243.4" x2="248.1" y2="244.5"/>
	</g>
	<g>
		
			<line fill="none" stroke="#E3111C" stroke-width="3" stroke-linecap="round" stroke-linejoin="round" x1="188.4" y1="220.8" x2="186.7" y2="221.9"/>
		
			<line fill="none" stroke="#E3111C" stroke-width="3" stroke-linecap="round" stroke-linejoin="round" stroke-dasharray="3.7134,7.4268" x1="180.4" y1="225.8" x2="155.1" y2="241.4"/>
		
			<line fill="none" stroke="#E3111C" stroke-width="3" stroke-linecap="round" stroke-linejoin="round" x1="152" y1="243.3" x2="150.3" y2="244.4"/>
	</g>
	<g>
		
			<line fill="none" stroke="#E3111C" stroke-width="3" stroke-linecap="round" stroke-linejoin="round" x1="105.9" y1="220.8" x2="104.2" y2="221.9"/>
		
			<line fill="none" stroke="#E3111C" stroke-width="3" stroke-linecap="round" stroke-linejoin="round" stroke-dasharray="3.7134,7.4268" x1="97.9" y1="225.8" x2="72.6" y2="241.4"/>
		
			<line fill="none" stroke="#E3111C" stroke-width="3" stroke-linecap="round" stroke-linejoin="round" x1="69.4" y1="243.3" x2="67.7" y2="244.4"/>
	</g>
	<g>
		<polyline fill="none" stroke="#E30613" stroke-width="3" stroke-linecap="round" stroke-linejoin="round" points="214.2,12.5 
			212.2,12.5 211.6,14.4 		"/>
		
			<line fill="none" stroke="#E30613" stroke-width="3" stroke-linecap="round" stroke-linejoin="round" stroke-dasharray="3.9011,7.8022" x1="209" y1="21.8" x2="171" y2="128.3"/>
		<polyline fill="none" stroke="#E30613" stroke-width="3" stroke-linecap="round" stroke-linejoin="round" points="169.7,132 
			169,133.9 168.3,132 		"/>
		
			<line fill="none" stroke="#E30613" stroke-width="3" stroke-linecap="round" stroke-linejoin="round" stroke-dasharray="3.9,7.8" x1="165.7" y1="124.7" x2="127.9" y2="18.1"/>
		<polyline fill="none" stroke="#E30613" stroke-width="3" stroke-linecap="round" stroke-linejoin="round" points="126.6,14.4 
			125.9,12.5 123.9,12.5 		"/>
		
			<line fill="none" stroke="#E30613" stroke-width="3" stroke-linecap="round" stroke-linejoin="round" stroke-dasharray="4.1154,8.2308" x1="115.7" y1="12.5" x2="58" y2="12.5"/>
		<polyline fill="none" stroke="#E30613" stroke-width="3" stroke-linecap="round" stroke-linejoin="round" points="53.9,12.5 
			51.9,12.5 51.9,14.5 		"/>
		
			<line fill="none" stroke="#E30613" stroke-width="3" stroke-linecap="round" stroke-linejoin="round" stroke-dasharray="4.0888,8.1776" x1="51.9" y1="22.7" x2="51.9" y2="214.9"/>
		<polyline fill="none" stroke="#E30613" stroke-width="3" stroke-linecap="round" stroke-linejoin="round" points="51.9,219 
			51.9,221 53.9,221 		"/>
		
			<line fill="none" stroke="#E30613" stroke-width="3" stroke-linecap="round" stroke-linejoin="round" stroke-dasharray="4.4646,8.9293" x1="62.9" y1="221" x2="98.6" y2="221"/>
		<polyline fill="none" stroke="#E30613" stroke-width="3" stroke-linecap="round" stroke-linejoin="round" points="103,221 
			105,221 105,219 		"/>
		
			<line fill="none" stroke="#E30613" stroke-width="3" stroke-linecap="round" stroke-linejoin="round" stroke-dasharray="3.9115,7.8231" x1="105" y1="211.1" x2="105" y2="97.7"/>
		<polyline fill="none" stroke="#E30613" stroke-width="3" stroke-linecap="round" stroke-linejoin="round" points="105,93.8 
			105,91.8 105.7,93.7 		"/>
		
			<line fill="none" stroke="#E30613" stroke-width="3" stroke-linecap="round" stroke-linejoin="round" stroke-dasharray="4.1301,8.2602" x1="108.3" y1="101.5" x2="146.2" y2="215.1"/>
		<polyline fill="none" stroke="#E30613" stroke-width="3" stroke-linecap="round" stroke-linejoin="round" points="147.5,219.1 
			148.1,221 150.1,221 		"/>
		
			<line fill="none" stroke="#E30613" stroke-width="3" stroke-linecap="round" stroke-linejoin="round" stroke-dasharray="4.5161,9.0321" x1="159.2" y1="221" x2="181.7" y2="221"/>
		<polyline fill="none" stroke="#E30613" stroke-width="3" stroke-linecap="round" stroke-linejoin="round" points="186.2,221 
			188.2,221 188.9,219.1 		"/>
		
			<line fill="none" stroke="#E30613" stroke-width="3" stroke-linecap="round" stroke-linejoin="round" stroke-dasharray="3.8278,7.6555" x1="191.4" y1="211.8" x2="231" y2="95.9"/>
		<polyline fill="none" stroke="#E30613" stroke-width="3" stroke-linecap="round" stroke-linejoin="round" points="232.3,92.3 
			232.9,90.4 232.9,92.4 		"/>
		
			<line fill="none" stroke="#E30613" stroke-width="3" stroke-linecap="round" stroke-linejoin="round" stroke-dasharray="3.9546,7.9092" x1="232.9" y1="100.3" x2="233.1" y2="215"/>
		<polyline fill="none" stroke="#E30613" stroke-width="3" stroke-linecap="round" stroke-linejoin="round" points="233.1,219 
			233.1,221 235.1,221 		"/>
		
			<polyline fill="none" stroke="#E30613" stroke-width="3" stroke-linecap="round" stroke-linejoin="round" stroke-dasharray="4.032,8.064" points="
			243.2,221 286,221 977,221 		"/>
		<polyline fill="none" stroke="#E30613" stroke-width="3" stroke-linecap="round" stroke-linejoin="round" points="981,221 
			983,221 983,219 		"/>
		
			<line fill="none" stroke="#E30613" stroke-width="3" stroke-linecap="round" stroke-linejoin="round" stroke-dasharray="4.0888,8.1776" x1="983" y1="210.8" x2="983" y2="18.6"/>
		<polyline fill="none" stroke="#E30613" stroke-width="3" stroke-linecap="round" stroke-linejoin="round" points="983,14.5 
			983,12.5 981,12.5 		"/>
		
			<polyline fill="none" stroke="#E30613" stroke-width="3" stroke-linecap="round" stroke-linejoin="round" stroke-dasharray="4.0145,8.029" points="
			973,12.5 286,12.5 218.3,12.5 		"/>
	</g>
</g>
<g id="Base">
	<g>
		<path fill="#E30613" d="M14.8,37.7h74L131.9,159l43.2-121.4h73.8v208.4H196l-0.2-130.5l-44.7,130.5H111L67.9,116.9v129.2H14.8
			V37.7z"/>
	</g>
	<rect x="248.9" y="37.7" fill="#E30613" width="697" height="208.4"/>
</g>
<g id="Text">
	<g>
		<path fill="#FFFFFF" d="M278.7,52.2v62c0,0.9-0.9,1.6-2,1.6h-3.8c-1.1,0-2-0.7-2-1.6V86.4h-12.7v27.8c0,0.9-0.9,1.6-2,1.6h-4
			c-1.1,0-2-0.7-2-1.6V52.3c0-0.1,0-0.1,0-0.1c0-0.8,0.9-1.6,2-1.6h4c1.1,0,2,0.8,2,1.6v27.9h12.7V52.2c0-0.8,0.9-1.6,2-1.6h3.8
			C277.8,50.7,278.7,51.4,278.7,52.2z"/>
		<path fill="#FFFFFF" d="M296.8,56.9v23.2h10.7c1.1,0,2,0.7,2,1.6v3.1c0,0.8-0.9,1.6-2,1.6h-10.7v23.1h10.7c1.1,0,2,0.8,2,1.6v3.1
			c0,0.9-0.9,1.6-2,1.6h-14.7c-2.2,0-4-1.4-4-3.1V53.8c0-1.7,1.7-3.1,4-3.1h14.7c1.1,0,2,0.8,2,1.6v3.1c0,0.9-0.9,1.6-2,1.6H296.8z"
			/>
		<path fill="#FFFFFF" d="M327.7,114.3c0,0.9-0.9,1.6-2,1.6h-4c-1.1,0-2-0.7-2-1.6V52.3c0-0.1,0-0.1,0-0.1c0-0.8,0.9-1.6,2-1.6h4
			c1.1,0,2,0.8,2,1.6V114.3z"/>
		<path fill="#FFFFFF" d="M366.5,62v42.5c0,6.2-6.3,11.3-14.2,11.3h-10.4c-2.1,0-4-1.4-4-3.1V53.8c0-1.7,1.9-3.1,4-3.1h10.4
			C360.2,50.7,366.5,55.8,366.5,62z M358.6,62c0-2.8-2.8-5.1-6.3-5.1h-6.4v52.6h6.4c3.5,0,6.3-2.3,6.3-5V62z"/>
		<path fill="#FFFFFF" d="M384.6,56.9v23.2h10.7c1.1,0,2,0.7,2,1.6v3.1c0,0.8-0.9,1.6-2,1.6h-10.7v23.1h10.7c1.1,0,2,0.8,2,1.6v3.1
			c0,0.9-0.9,1.6-2,1.6h-14.7c-2.2,0-4-1.4-4-3.1V53.8c0-1.7,1.7-3.1,4-3.1h14.7c1.1,0,2,0.8,2,1.6v3.1c0,0.9-0.9,1.6-2,1.6H384.6z"
			/>
		<path fill="#FFFFFF" d="M428.1,111.1v3.1c0,0.9-0.9,1.6-2,1.6h-14.6c-2.2,0-4-1.4-4-3.1V52.2c0-0.8,0.9-1.6,2-1.6h4
			c1,0,2,0.8,2,1.6v57.3h10.6C427.2,109.6,428.1,110.3,428.1,111.1z"/>
		<path fill="#FFFFFF" d="M465.7,75.1c0,3.2-1.7,6.2-4.4,8.2c2.7,2.1,4.4,4.9,4.4,8.1v13.1c0,6.2-6.4,11.3-14.2,11.3h-10.4
			c-2.1,0-4-1.4-4-3.1V53.8c0-1.7,1.9-3.1,4-3.1h10.4c7.8,0,14.2,5.1,14.2,11.4V75.1z M457.7,62c0-2.8-2.8-5.1-6.3-5.1H445v23.2h6.4
			c3.5,0,6.3-2.3,6.3-5.1V62z M451.4,86.4H445v23.1h6.4c3.5,0,6.3-2.3,6.3-5V91.4C457.7,88.7,454.9,86.4,451.4,86.4z"/>
		<path fill="#FFFFFF" d="M483.8,56.9v23.2h10.7c1.1,0,2,0.7,2,1.6v3.1c0,0.8-0.9,1.6-2,1.6h-10.7v23.1h10.7c1.1,0,2,0.8,2,1.6v3.1
			c0,0.9-0.9,1.6-2,1.6h-14.7c-2.2,0-4-1.4-4-3.1V53.8c0-1.7,1.7-3.1,4-3.1h14.7c1.1,0,2,0.8,2,1.6v3.1c0,0.9-0.9,1.6-2,1.6H483.8z"
			/>
		<path fill="#FFFFFF" d="M534.6,75.1c0,3.2-1.6,6.1-4.3,8.1c2.7,2.1,4.3,5,4.3,8.2v22.8c0,0.9-0.9,1.6-2,1.6h-4c-1.1,0-2-0.7-2-1.6
			V91.4c0-2.8-2.8-5.1-6.3-5.1h-6.3v27.9c0,0.9-1,1.6-2,1.6h-4c-1.1,0-2-0.7-2-1.6V53.8c0-1.7,1.7-3.1,4-3.1h10.3
			c7.9,0,14.2,5.1,14.2,11.4V75.1z M526.7,62c0-2.8-2.8-5.1-6.3-5.1h-6.3v23.1h6.3c3.5,0,6.3-2.3,6.3-5V62z"/>
		<path fill="#FFFFFF" d="M565.3,65.3v-3.3c0-2.7-2.8-5-6.3-5c-3.5,0-6.3,2.3-6.3,5v42.6c0,2.7,2.8,5,6.3,5c3.5,0,6.3-2.3,6.3-5
			V86.2H561c-1.1,0-2-0.7-2-1.6v-3.1c0-0.9,0.9-1.6,2-1.6h10.3c1.1,0,2,0.7,2,1.6v23c0,6.2-6.4,11.3-14.2,11.3
			c-7.8,0-14.2-5.1-14.2-11.3V61.9c0-6.2,6.4-11.3,14.2-11.3c7.8,0,14.2,5.1,14.2,11.3v3.3c0,0.9-0.9,1.6-2,1.6h-4
			C566.2,66.8,565.3,66.1,565.3,65.3z"/>
	</g>
	<g>
		<g>
			<path fill="#FFFFFF" d="M298.6,227.4h-0.3c-2.4,3.8-5.6,6.5-9.6,8.1c-4,1.6-8.2,2.5-12.7,2.5c-3.3,0-6.5-0.5-9.5-1.4
				c-3-0.9-5.7-2.3-8-4.1c-2.3-1.8-4.2-4.1-5.5-6.8c-1.4-2.7-2-5.8-2-9.4c0-4.1,0.7-7.5,2.2-10.3c1.5-2.8,3.5-5.1,6.1-7
				c2.6-1.8,5.5-3.3,8.8-4.3c3.3-1,6.7-1.8,10.2-2.2c3.5-0.5,7.1-0.8,10.6-0.9c3.5-0.1,6.8-0.1,9.8-0.1c0-3.9-1.4-6.9-4.1-9.2
				c-2.8-2.3-6-3.4-9.8-3.4c-3.6,0-6.8,0.8-9.8,2.2c-2.9,1.5-5.6,3.6-7.9,6.2l-11.6-11.9c4.1-3.8,8.8-6.6,14.2-8.5
				c5.4-1.9,11-2.8,16.8-2.8c6.4,0,11.6,0.8,15.7,2.4c4.1,1.6,7.4,3.9,9.9,7c2.5,3.1,4.2,6.9,5.1,11.4c1,4.5,1.5,9.7,1.5,15.6v35.8
				h-20V227.4z M293.2,205.4c-1.6,0-3.7,0.1-6.2,0.2c-2.5,0.1-4.8,0.6-7.1,1.2c-2.3,0.7-4.2,1.7-5.8,3c-1.6,1.4-2.4,3.2-2.4,5.7
				c0,2.6,1.1,4.5,3.3,5.8c2.2,1.3,4.5,1.9,7,1.9c2.1,0,4.2-0.3,6.2-0.9c2-0.6,3.7-1.4,5.3-2.5c1.5-1.1,2.8-2.4,3.7-4.1
				c0.9-1.6,1.4-3.6,1.4-5.8v-4.6H293.2z"/>
			<path fill="#FFFFFF" d="M332.2,126.7H354v67l24.1-27.8h26.7l-28,31.8l28.7,38.7H378l-23.8-35.7H354v35.7h-21.8V126.7z"/>
			<path fill="#FFFFFF" d="M479.5,224.1c-3.5,4.4-7.9,7.9-13.2,10.3c-5.3,2.4-10.8,3.6-16.5,3.6c-5.4,0-10.5-0.9-15.3-2.6
				s-8.9-4.2-12.5-7.5c-3.5-3.2-6.3-7.1-8.3-11.7c-2-4.5-3-9.6-3-15.2c0-5.6,1-10.7,3-15.2c2-4.5,4.8-8.4,8.3-11.7
				c3.5-3.2,7.7-5.7,12.5-7.5c4.8-1.7,9.9-2.6,15.3-2.6c5,0,9.6,0.9,13.7,2.6c4.1,1.7,7.6,4.2,10.4,7.5c2.8,3.2,5,7.1,6.6,11.7
				c1.5,4.5,2.3,9.6,2.3,15.2v6.8h-50.5c0.9,4.2,2.8,7.5,5.7,9.9s6.5,3.7,10.7,3.7c3.6,0,6.6-0.8,9.1-2.4c2.5-1.6,4.6-3.6,6.5-6.2
				L479.5,224.1z M461.1,193.1c0.1-3.7-1.1-6.8-3.6-9.4c-2.5-2.6-5.8-3.9-9.7-3.9c-2.4,0-4.5,0.4-6.4,1.2c-1.8,0.8-3.4,1.8-4.7,3
				c-1.3,1.2-2.3,2.6-3,4.2c-0.7,1.6-1.1,3.3-1.2,5H461.1z"/>
			<path fill="#FFFFFF" d="M496.1,165.8h21.7v11.3h0.3c2.3-4.3,5.1-7.6,8.3-9.8c3.2-2.2,7.2-3.3,12-3.3c1.3,0,2.5,0,3.8,0.1
				c1.3,0.1,2.4,0.3,3.5,0.6v19.9c-1.5-0.5-3.1-0.8-4.6-1.1c-1.5-0.2-3.1-0.4-4.7-0.4c-4.2,0-7.4,0.6-9.9,1.7
				c-2.4,1.2-4.3,2.8-5.6,4.9c-1.3,2.1-2.2,4.6-2.5,7.5c-0.4,2.9-0.6,6.1-0.6,9.6v29.4h-21.7V165.8z"/>
			<path fill="#FFFFFF" d="M595,186.5c-3.2-4-7.4-5.9-12.6-5.9c-1.8,0-3.6,0.4-5.4,1.3s-2.6,2.4-2.6,4.5c0,1.7,0.9,3,2.7,3.8
				c1.8,0.8,4.1,1.5,6.8,2.2c2.8,0.6,5.7,1.3,8.8,2c3.1,0.7,6.1,1.9,8.8,3.4c2.8,1.5,5,3.6,6.8,6.3c1.8,2.7,2.7,6.2,2.7,10.7
				c0,4.5-1,8.3-3,11.2c-2,3-4.5,5.3-7.6,7.1c-3.1,1.8-6.6,3-10.4,3.8c-3.9,0.7-7.7,1.1-11.5,1.1c-4.9,0-9.9-0.7-14.9-2.1
				c-5-1.4-9.3-3.9-12.8-7.5l13.2-14.6c2,2.5,4.3,4.4,6.7,5.7c2.5,1.3,5.3,2,8.6,2c2.5,0,4.8-0.4,6.8-1.1c2-0.7,3-2.1,3-4
				c0-1.8-0.9-3.2-2.7-4.1c-1.8-0.9-4.1-1.7-6.8-2.3c-2.8-0.6-5.7-1.3-8.8-2c-3.1-0.7-6.1-1.8-8.8-3.3c-2.8-1.4-5-3.5-6.8-6.2
				c-1.8-2.7-2.7-6.2-2.7-10.7c0-4.2,0.8-7.7,2.5-10.7c1.7-3,3.9-5.5,6.7-7.4c2.8-1.9,5.9-3.4,9.5-4.3c3.6-0.9,7.2-1.4,10.9-1.4
				c4.6,0,9.3,0.7,14.1,2c4.7,1.4,8.7,3.8,12,7.2L595,186.5z"/>
			<path fill="#FFFFFF" d="M624.2,165.8h20v9.3h0.3c0.9-1.3,2-2.5,3.4-3.8c1.4-1.3,3-2.5,4.9-3.6c1.9-1.1,3.9-1.9,6.2-2.6
				c2.2-0.7,4.6-1,7.1-1c5.2,0,10,0.9,14.2,2.7c4.3,1.8,7.9,4.3,10.9,7.5c3,3.2,5.4,7.1,7,11.5c1.6,4.4,2.5,9.3,2.5,14.6
				c0,4.9-0.8,9.6-2.2,14.1c-1.5,4.5-3.6,8.5-6.4,12c-2.8,3.5-6.1,6.3-10.1,8.3c-4,2.1-8.5,3.1-13.5,3.1c-4.5,0-8.8-0.7-12.7-2.1
				s-7.1-3.8-9.6-7.2H646v40.6h-21.8V165.8z M644.3,201c0,5.3,1.5,9.6,4.6,12.9c3,3.3,7.3,4.9,12.8,4.9s9.8-1.6,12.8-4.9
				c3-3.3,4.6-7.6,4.6-12.9c0-5.3-1.5-9.6-4.6-12.9c-3-3.3-7.3-4.9-12.8-4.9s-9.8,1.6-12.8,4.9C645.8,191.4,644.3,195.7,644.3,201z"
				/>
			<path fill="#FFFFFF" d="M757.8,227.4h-0.3c-2.4,3.8-5.6,6.5-9.6,8.1c-4,1.6-8.2,2.5-12.7,2.5c-3.3,0-6.5-0.5-9.5-1.4
				c-3-0.9-5.7-2.3-8-4.1c-2.3-1.8-4.2-4.1-5.5-6.8c-1.4-2.7-2-5.8-2-9.4c0-4.1,0.7-7.5,2.2-10.3c1.5-2.8,3.5-5.1,6.1-7
				c2.6-1.8,5.5-3.3,8.8-4.3c3.3-1,6.7-1.8,10.2-2.2c3.5-0.5,7.1-0.8,10.6-0.9c3.5-0.1,6.8-0.1,9.8-0.1c0-3.9-1.4-6.9-4.1-9.2
				c-2.8-2.3-6-3.4-9.8-3.4c-3.6,0-6.8,0.8-9.8,2.2c-2.9,1.5-5.6,3.6-7.9,6.2l-11.6-11.9c4.1-3.8,8.8-6.6,14.2-8.5
				c5.4-1.9,11-2.8,16.8-2.8c6.4,0,11.6,0.8,15.7,2.4c4.1,1.6,7.4,3.9,9.9,7c2.5,3.1,4.2,6.9,5.1,11.4c1,4.5,1.5,9.7,1.5,15.6v35.8
				h-20V227.4z M752.4,205.4c-1.6,0-3.7,0.1-6.2,0.2c-2.5,0.1-4.8,0.6-7.1,1.2c-2.3,0.7-4.2,1.7-5.8,3c-1.6,1.4-2.4,3.2-2.4,5.7
				c0,2.6,1.1,4.5,3.3,5.8c2.2,1.3,4.5,1.9,7,1.9c2.1,0,4.2-0.3,6.2-0.9c2-0.6,3.7-1.4,5.3-2.5c1.5-1.1,2.8-2.4,3.7-4.1
				c0.9-1.6,1.4-3.6,1.4-5.8v-4.6H752.4z"/>
			<path fill="#FFFFFF" d="M839.1,188.6c-1.1-1.5-2.6-2.8-4.5-3.8c-1.9-1-4-1.5-6.2-1.5c-5.5,0-9.8,1.6-12.8,4.9
				c-3,3.3-4.6,7.6-4.6,12.9c0,5.3,1.5,9.6,4.6,12.9c3,3.3,7.3,4.9,12.8,4.9c2.4,0,4.5-0.5,6.2-1.6c1.7-1.1,3.2-2.3,4.5-3.8
				l14.4,15.1c-3.4,3.5-7.4,5.9-12,7.3c-4.6,1.4-9,2.1-13.1,2.1c-5.4,0-10.5-0.9-15.3-2.6s-8.9-4.2-12.5-7.5
				c-3.5-3.2-6.3-7.1-8.3-11.7c-2-4.5-3-9.6-3-15.2c0-5.6,1-10.7,3-15.2c2-4.5,4.8-8.4,8.3-11.7c3.5-3.2,7.7-5.7,12.5-7.5
				c4.8-1.7,9.9-2.6,15.3-2.6c4.2,0,8.5,0.7,13.1,2.1c4.6,1.4,8.6,3.8,12,7.3L839.1,188.6z"/>
			<path fill="#FFFFFF" d="M928,224.1c-3.5,4.4-7.9,7.9-13.2,10.3c-5.3,2.4-10.8,3.6-16.5,3.6c-5.4,0-10.5-0.9-15.3-2.6
				s-8.9-4.2-12.5-7.5c-3.5-3.2-6.3-7.1-8.3-11.7c-2-4.5-3-9.6-3-15.2c0-5.6,1-10.7,3-15.2c2-4.5,4.8-8.4,8.3-11.7
				c3.5-3.2,7.7-5.7,12.5-7.5c4.8-1.7,9.9-2.6,15.3-2.6c5,0,9.6,0.9,13.7,2.6c4.1,1.7,7.6,4.2,10.4,7.5c2.8,3.2,5,7.1,6.6,11.7
				c1.5,4.5,2.3,9.6,2.3,15.2v6.8h-50.5c0.9,4.2,2.8,7.5,5.7,9.9s6.5,3.7,10.7,3.7c3.6,0,6.6-0.8,9.1-2.4c2.5-1.6,4.6-3.6,6.5-6.2
				L928,224.1z M909.6,193.1c0.1-3.7-1.1-6.8-3.6-9.4c-2.5-2.6-5.8-3.9-9.7-3.9c-2.4,0-4.5,0.4-6.4,1.2c-1.8,0.8-3.4,1.8-4.7,3
				c-1.3,1.2-2.3,2.6-3,4.2c-0.7,1.6-1.1,3.3-1.2,5H909.6z"/>
		</g>
		<rect x="624.2" y="246.1" fill="#E30613" width="21.8" height="23.3"/>
	</g>
	<g>
		<path fill="#FFFFFF" d="M648.8,76.6l-5.1-5.1c-0.6-0.6-1.6-0.5-2.1,0.1c-1.6,2.1-5,6.5-8.7,10.2c-4.1,4.1-19.9,18.8-26.2,24.5
			c-1.4,1.3-1.4,3.4-0.1,4.7l2.4,2.4c1.3,1.3,3.5,1.3,4.7-0.1c5.6-6.2,19.7-21.6,22.3-24.2c2.6-2.6,9.6-8.3,12.5-10.6
			C649.4,78.1,649.4,77.2,648.8,76.6z"/>
		<path fill="#FFFFFF" d="M670.2,72.4l-19.9-19.9c-0.5-0.5-1.2-0.9-1.9-1l-10.1-2c-2.3-0.4-3.8,1.4-3.1,3.6l2.5,7.8
			c0.2,0.6,0.5,1.1,0.9,1.5l20.8,20.8c1.1,1.1,2.8,1.1,3.9,0l7-7C671.3,75.3,671.3,73.5,670.2,72.4z"/>
	</g>
	<g>
		<path fill="#FFFFFF" d="M707.5,78.3c-1-1-1.9-1.9-2.9-2.9c-1.1-1.1-2.1-2.1-3.2-3.2c-0.4-0.4-2.7-2.8-2.7-6.5
			c0-2.4,0.9-4.7,2.7-6.5l8.4-8.4l19.1,19.1l-8.4,8.4C716.9,81.9,711.1,81.9,707.5,78.3z"/>
		<path fill="#FFFFFF" d="M716,54.1l-0.2-0.2c-0.5-0.5-0.5-1.2,0-1.7l7-7c0.5-0.5,1.2-0.5,1.7,0l0.2,0.2c0.5,0.5,0.5,1.2,0,1.7l-7,7
			C717.3,54.5,716.5,54.5,716,54.1z"/>
		<path fill="#FFFFFF" d="M725.8,64l-0.2-0.2c-0.5-0.5-0.5-1.2,0-1.7l7-7c0.5-0.5,1.2-0.5,1.7,0l0.2,0.2c0.5,0.5,0.5,1.2,0,1.7l-7,7
			C727.1,64.5,726.3,64.5,725.8,64z"/>
		<path fill="#FFFFFF" d="M707,117.1c-0.5-0.5-0.7-0.9-0.9-1.4c-1.5-4.1,2.2-7.5,3.4-8.6c2.6-2.4,6.3-4.7,9.8-6.8
			c2.3-1.4,4.5-2.8,6.3-4.1c1.1-0.8,2.5-1.7,4-2.7c5.1-3.4,12.2-8,12.6-12.8c0.2-1.9-0.7-3.8-2.8-5.8c-1.1-1-2.2-1.5-3.5-1.4
			c-4.7,0.4-10.9,8.5-16.3,15.7c-6,8-11.7,15.5-17.1,15.7c-5.4,0.3-8.9-1.3-10.5-4.5c-1.4-2.9-1-7.1,1.2-12c1.8-4.1,4.7-8.5,8-12.2
			c0.5-0.6,1.4-0.6,2-0.1c0.6,0.5,0.6,1.4,0.1,2c-6,6.7-11,16.4-8.8,21.1c1,2.1,3.6,3.1,7.7,2.9c4-0.2,9.8-7.9,14.9-14.6
			c6.3-8.4,12.3-16.4,18.4-16.9c2.1-0.2,4,0.6,5.7,2.2c2.7,2.6,3.9,5.3,3.7,8.1c-0.6,6.1-7.9,11-13.9,14.9c-1.4,0.9-2.8,1.8-3.8,2.6
			c-1.9,1.4-4.1,2.8-6.5,4.2c-6.3,3.9-13.4,8.3-12.1,12.1c0.1,0.1,0.2,0.5,0.9,0.7c3.5,1,12.6-3,14.8-4.8c0.6-0.5,1.5-0.4,2,0.2
			c0.5,0.6,0.4,1.5-0.2,2c-1.4,1.2-4.5,2.8-7.7,3.9c-2.9,1.1-6.9,2.2-9.6,1.4C708.1,117.9,707.4,117.5,707,117.1z"/>
	</g>
	<g id="xJXXfg_1_">
		<g>
			<path fill="#FFFFFF" d="M792.2,108.4c7.7-21.1,15.3-42.2,22.9-63.2c0.9,0.3,1.9,0.7,2.8,1c-0.1,0.2-0.1,0.3-0.2,0.4
				c-0.3,0.9-0.7,1.7-0.9,2.6c-0.2,0.8-0.4,1.7-0.6,2.6c-0.3,1.6-0.4,3.2-0.3,4.8c0.1,1.8,0.6,3.5,1.1,5.2c0.7,2.2,1.5,4.4,2.4,6.5
				c1.3,3.3,2.6,6.6,3.4,10c0.6,2.5,1,5.1,1,7.7c0,1.8-0.3,3.5-0.7,5.2c-0.3,1.2-0.7,2.3-1.1,3.4c-0.5,1.2-1.1,2.4-1.8,3.5
				c-2.6,4.2-5.8,8-9.3,11.5c-0.8,0.8-1.6,1.6-2.6,2.2c-0.2,0.1-0.4,0.2-0.6,0.3c-0.1,0-0.2,0-0.3,0c0,0,0,0,0-0.1
				c0.3-0.4,0.6-0.7,1-1.1c1.9-2.1,3.8-4.3,5.6-6.4c1.2-1.4,2.3-2.9,3.3-4.5c1-1.5,1.7-3.1,2.2-4.8c1.1-3.7,1.4-7.4,1-11.1
				c-0.2-1.9-0.6-3.8-1.5-5.5c-0.7-1.6-1.7-3-2.8-4.3c-1.5-1.8-3-3.4-4.9-4.8c-0.3-0.2-0.7-0.4-1-0.7c-0.1-0.1-0.2-0.1-0.3-0.2
				c0,0.1-0.1,0.1-0.1,0.2c-2.5,6.9-5.1,13.8-7.6,20.7c-3,8.3-6.1,16.6-9.1,24.9c-0.3,0.8-0.8,1.5-1.3,2.2c-1.3,1.6-2.8,3-4.6,4.1
				c-1.8,1-3.7,1.7-5.7,2.1c-2.4,0.5-4.8,0.6-7.1,0.2c-2-0.3-4-0.9-5.7-2.2c-2.5-1.9-3.5-4.5-3.1-7.5c0.2-1.6,1.1-3,2.2-4.2
				c1.3-1.4,2.8-2.4,4.5-3.1c3.3-1.4,6.7-2,10.2-1.8c1.6,0.1,3.2,0.6,4.7,1.1c1.8,0.6,3.3,1.8,4.7,3.1
				C792,108.2,792.1,108.3,792.2,108.4z"/>
		</g>
	</g>
	<path fill="none" d="M893.7,96c-0.6-0.6-2.6,0.3-5.2,2.3c1.2,1.1,2.1,2.2,2.4,3.5C893.2,98.9,894.4,96.6,893.7,96z"/>
	<path fill="none" d="M887.9,103.4c0-1-0.7-2-2-3c-0.8,0.7-1.6,1.4-2.3,2.2c-4.6,4.6-7.6,9.1-6.6,10.1c0.9,0.9,5.1-1.7,9.5-6
		c0.2-0.6,0.5-1.1,0.7-1.6C887.7,104.3,887.9,103.9,887.9,103.4z"/>
	<g>
		<path fill="#FFFFFF" d="M889.4,99.1c-0.8,0.6-1.7,1.3-2.6,2c1.2,1,1.2,1.2,1.1,2.2c0,0.5-0.2,1-0.6,1.7c-0.2,0.4-0.5,1-0.7,1.6
			c0.2-0.2,0.4-0.4,0.6-0.6c1.5-1.5,2.8-2.9,3.8-4.3C890.6,100.5,890.6,100.2,889.4,99.1z"/>
		<path fill="#FFFFFF" d="M887.2,112.9c0.4,1.4,1.3,2.6,2.9,4.7c0.4,0.6,0.9,1.3,1.5,2c4,5.5,4.7,7.1,4.7,7.5
			c-0.2,0.4-1.2,2.1-8,3.2l0.5,3.2c6.2-1,9.7-2.8,10.6-5.4c0.5-1.6,0.2-3.1-5.2-10.5c-0.6-0.8-1.1-1.5-1.5-2.1
			c-2-2.7-2.4-3.3-2.6-4.5c0-0.4,0-0.7,0-0.9C889.2,111.2,888.2,112.1,887.2,112.9z"/>
		<path fill="#FFFFFF" d="M932.3,56.1l-37.8,34.8c-2.5,0.7-5.7,2.6-9,5.3c-0.9,0.7-1.7,1.5-2.6,2.3c-0.3,0.3-0.6,0.5-0.9,0.8
			c-6.7,6.7-10.3,14.1-8,16.4c1.9,1.9,6.9-0.1,12.3-4.4c1-0.8,2-1.7,3-2.6c0.3-0.3,0.7-0.6,1-1c4.5-4.5,7.5-9.2,8.4-12.5l34.1-38.3
			L932.3,56.1z M891,101.8c-1.1,1.3-2.4,2.8-3.8,4.3c-0.2,0.2-0.4,0.4-0.6,0.6c-4.4,4.3-8.6,7-9.5,6c-1-1,2-5.5,6.6-10.1
			c0.8-0.8,1.6-1.5,2.3-2.2c0.9-0.8,1.8-1.5,2.6-2.1c2.6-1.9,4.6-2.9,5.2-2.3C894.4,96.6,893.2,98.9,891,101.8z"/>
		<path fill="#FFFFFF" d="M904.6,59.9c-1.5,1.5-3.3,2.9-5,4c-3.1,2-11.1,6.6-17.9,4.6c-2.3-0.7-3.3-1.7-4.4-3.1
			c-1.2-1.3-2.5-2.8-5.2-4c-4.1-1.7-8.8-1.6-12-1.2c-4.1,0.5-8.3,1.8-11.5,3.6c-3.4,1.9-5.5,4.1-5.9,6.4c-1.2,7,12.2,14.1,26,20.7
			c1.5,0.7,3,1.4,4.4,2.1c2.6,1.2,5.2,2.4,7.4,3.6c0.9-0.8,1.7-1.6,2.6-2.3c-2.4-1.5-5.4-2.8-8.6-4.3c-1.4-0.7-2.9-1.3-4.4-2
			c-4.7-2.3-11.1-5.4-16.3-8.7c-7.3-4.7-8.1-7.4-7.9-8.5c0.2-1.2,1.8-2.8,4.2-4.1c5.5-3,14.9-4.7,20.7-2.2c2,0.8,2.9,1.9,4,3.1
			c1.3,1.5,2.8,3.1,6,4.1c8.1,2.4,17.1-2.7,20.6-5c2.1-1.4,4.2-3.1,6-4.9C906.5,61.2,905.6,60.6,904.6,59.9z"/>
	</g>
</g>
</svg>
