<svg xmlns="http://www.w3.org/2000/svg" viewBox="0 0 969.72 258.36"><title>Makerspace_Laser_Logo</title><path d="M246.36,14h4a1.5,1.5,0,0,0,0-3h-4a1.5,1.5,0,0,0,0,3Zm84.3,0h4a1.5,1.5,0,0,0,0-3h-4a1.5,1.5,0,0,0,0,3Zm-48.17,0h4a1.5,1.5,0,0,0,0-3h-4a1.5,1.5,0,0,0,0,3ZM258.4,14h4a1.5,1.5,0,0,0,0-3h-4a1.5,1.5,0,0,0,0,3Zm36.13,0h4a1.5,1.5,0,0,0,0-3h-4a1.5,1.5,0,0,0,0,3Zm24.09,0h4a1.5,1.5,0,0,0,0-3h-4a1.5,1.5,0,0,0,0,3Zm-12,0h4a1.5,1.5,0,0,0,0-3h-4a1.5,1.5,0,0,0,0,3Zm-36.13,0h4a1.5,1.5,0,0,0,0-3h-4a1.5,1.5,0,0,0,0,3ZM183.88,35a1.5,1.5,0,0,0,.89-.29l3-2.2A1.5,1.5,0,0,0,186,30.08l-3,2.2a1.5,1.5,0,0,0,.89,2.71ZM535.4,14h4a1.5,1.5,0,0,0,0-3h-4a1.5,1.5,0,0,0,0,3ZM192.8,28.39a1.5,1.5,0,0,0,.89-.29l3-2.2a1.5,1.5,0,0,0-1.78-2.41l-3,2.2a1.5,1.5,0,0,0,.89,2.71ZM222.27,14h4a1.5,1.5,0,0,0,0-3h-4a1.5,1.5,0,0,0,0,3Zm12,0h4a1.5,1.5,0,0,0,0-3h-4a1.5,1.5,0,0,0,0,3ZM207.14,26.84a1.5,1.5,0,0,0,1.92-.91l1.31-3.67a1.5,1.5,0,0,0-2.83-1l-1.31,3.67A1.5,1.5,0,0,0,207.14,26.84Zm-5.42-5a1.5,1.5,0,0,0,.89-.29l3-2.2a1.5,1.5,0,0,0-1.78-2.41l-3,2.2a1.5,1.5,0,0,0,.89,2.71ZM451.1,14h4a1.5,1.5,0,0,0,0-3h-4a1.5,1.5,0,0,0,0,3Zm60.22,0h4a1.5,1.5,0,0,0,0-3h-4a1.5,1.5,0,0,0,0,3Zm-72.26,0h4a1.5,1.5,0,0,0,0-3h-4a1.5,1.5,0,0,0,0,3Zm-12,0h4a1.5,1.5,0,0,0,0-3h-4a1.5,1.5,0,0,0,0,3Zm36.13,0h4a1.5,1.5,0,0,0,0-3h-4a1.5,1.5,0,0,0,0,3Zm12,0h4a1.5,1.5,0,0,0,0-3h-4a1.5,1.5,0,0,0,0,3Zm12,0h4a1.5,1.5,0,0,0,0-3h-4a1.5,1.5,0,0,0,0,3Zm12,0h4a1.5,1.5,0,0,0,0-3h-4a1.5,1.5,0,0,0,0,3ZM342.71,14h4a1.5,1.5,0,0,0,0-3h-4a1.5,1.5,0,0,0,0,3Zm36.13,0h4a1.5,1.5,0,0,0,0-3h-4a1.5,1.5,0,0,0,0,3Zm-12,0h4a1.5,1.5,0,0,0,0-3h-4a1.5,1.5,0,0,0,0,3Zm-12,0h4a1.5,1.5,0,0,0,0-3h-4a1.5,1.5,0,0,0,0,3Zm168.61,0h4a1.5,1.5,0,0,0,0-3h-4a1.5,1.5,0,0,0,0,3ZM390.88,14h4a1.5,1.5,0,0,0,0-3h-4a1.5,1.5,0,0,0,0,3ZM415,14h4a1.5,1.5,0,0,0,0-3h-4a1.5,1.5,0,0,0,0,3Zm-12,0h4a1.5,1.5,0,0,0,0-3h-4a1.5,1.5,0,0,0,0,3Zm385.39,0h4a1.5,1.5,0,0,0,0-3h-4a1.5,1.5,0,0,0,0,3Zm96.35,0h4a1.5,1.5,0,0,0,0-3h-4a1.5,1.5,0,0,0,0,3Zm-24.09,0h4a1.5,1.5,0,0,0,0-3h-4a1.5,1.5,0,0,0,0,3Zm-84.3,0h4a1.5,1.5,0,0,0,0-3h-4a1.5,1.5,0,0,0,0,3Zm60.22,0h4a1.5,1.5,0,0,0,0-3h-4a1.5,1.5,0,0,0,0,3Zm12,0h4a1.5,1.5,0,0,0,0-3h-4a1.5,1.5,0,0,0,0,3ZM151.26,88.41l1.31,3.67a1.5,1.5,0,1,0,2.83-1l-1.31-3.67a1.5,1.5,0,1,0-2.83,1ZM824.45,14h4a1.5,1.5,0,0,0,0-3h-4a1.5,1.5,0,0,0,0,3Zm-24.09,0h4a1.5,1.5,0,0,0,0-3h-4a1.5,1.5,0,0,0,0,3Zm12,0h4a1.5,1.5,0,0,0,0-3h-4a1.5,1.5,0,0,0,0,3Zm60.22,0h4a1.5,1.5,0,0,0,0-3h-4a1.5,1.5,0,0,0,0,3Zm24.09,0h4a1.5,1.5,0,0,0,0-3h-4a1.5,1.5,0,0,0,0,3Zm60.22,0h4a1.5,1.5,0,0,0,0-3h-4a1.5,1.5,0,0,0,0,3Zm12,0h4a1.5,1.5,0,0,0,0-3h-4a1.5,1.5,0,0,0,0,3Zm2.07,5a1.5,1.5,0,0,0,1.72,2.46l3.16-2.21a1.5,1.5,0,1,0-1.72-2.46Zm-9.84,8.71a1.5,1.5,0,0,0,2.09.37l3.16-2.21a1.5,1.5,0,1,0-1.72-2.46l-3.16,2.21A1.5,1.5,0,0,0,961.2,27.77ZM908.75,14h4a1.5,1.5,0,0,0,0-3h-4a1.5,1.5,0,0,0,0,3Zm24.09,0h4a1.5,1.5,0,0,0,0-3h-4a1.5,1.5,0,0,0,0,3Zm-12,0h4a1.5,1.5,0,0,0,0-3h-4a1.5,1.5,0,0,0,0,3ZM667.88,14h4a1.5,1.5,0,0,0,0-3h-4a1.5,1.5,0,0,0,0,3Zm96.35,0h4a1.5,1.5,0,0,0,0-3h-4a1.5,1.5,0,0,0,0,3ZM607.67,14h4a1.5,1.5,0,0,0,0-3h-4a1.5,1.5,0,0,0,0,3Zm12,0h4a1.5,1.5,0,0,0,0-3h-4a1.5,1.5,0,0,0,0,3Zm24.09,0h4a1.5,1.5,0,0,0,0-3h-4a1.5,1.5,0,0,0,0,3Zm-84.3,0h4a1.5,1.5,0,0,0,0-3h-4a1.5,1.5,0,0,0,0,3Zm96.35,0h4a1.5,1.5,0,0,0,0-3h-4a1.5,1.5,0,0,0,0,3Zm-84.3,0h4a1.5,1.5,0,0,0,0-3h-4a1.5,1.5,0,0,0,0,3Zm24.09,0h4a1.5,1.5,0,0,0,0-3h-4a1.5,1.5,0,0,0,0,3Zm-12,0h4a1.5,1.5,0,0,0,0-3h-4a1.5,1.5,0,0,0,0,3Zm48.17,0h4a1.5,1.5,0,0,0,0-3h-4a1.5,1.5,0,0,0,0,3Zm84.3,0h4a1.5,1.5,0,0,0,0-3h-4a1.5,1.5,0,0,0,0,3Zm24.09,0h4a1.5,1.5,0,0,0,0-3h-4a1.5,1.5,0,0,0,0,3Zm-12,0h4a1.5,1.5,0,0,0,0-3h-4a1.5,1.5,0,0,0,0,3Zm24.09,0h4a1.5,1.5,0,0,0,0-3h-4a1.5,1.5,0,0,0,0,3ZM547.45,14h4a1.5,1.5,0,0,0,0-3h-4a1.5,1.5,0,0,0,0,3Zm132.48,0h4a1.5,1.5,0,0,0,0-3h-4a1.5,1.5,0,0,0,0,3Zm12,0h4a1.5,1.5,0,0,0,0-3h-4a1.5,1.5,0,0,0,0,3Zm12,0h4a1.5,1.5,0,0,0,0-3h-4a1.5,1.5,0,0,0,0,3ZM210.29,15.17a1.49,1.49,0,0,0,2.7-.26l.32-.89h.94a1.5,1.5,0,0,0,0-3h-2a1.5,1.5,0,0,0-.39.06l-.09,0a1.5,1.5,0,0,0-.32.16l0,0h0l-1.61,1.19a1.5,1.5,0,0,0,.55,2.67ZM962.35,221a1.5,1.5,0,0,0-1.5-1.5h-4a1.5,1.5,0,0,0,0,3h4A1.5,1.5,0,0,0,962.35,221Zm2.8,9-3.07,2a1.5,1.5,0,1,0,1.65,2.5l3.07-2a1.5,1.5,0,1,0-1.65-2.5Zm-9.22,6.1-3.07,2a1.5,1.5,0,1,0,1.65,2.5l3.07-2a1.5,1.5,0,1,0-1.65-2.5ZM953.81,34.76,957,32.56a1.5,1.5,0,1,0-1.72-2.46l-3.16,2.21a1.5,1.5,0,0,0,1.72,2.46Zm20.56,189.11-3.07,2a1.5,1.5,0,1,0,1.65,2.5l3.07-2a1.5,1.5,0,1,0-1.65-2.5Zm8.64-6.42a1.5,1.5,0,0,0-1.5,1.5v.19l-.46.31h0a1.57,1.57,0,1,0,.85,3H983a1.5,1.5,0,0,0,1.5-1.5v-2A1.5,1.5,0,0,0,983,217.46ZM948.9,11h-4a1.5,1.5,0,0,0,0,3h4a1.5,1.5,0,0,0,0-3ZM974.45,221a1.5,1.5,0,0,0-1.5-1.5h-4a1.5,1.5,0,0,0,0,3h4A1.5,1.5,0,0,0,974.45,221Zm-312.8-37.75q-8.26,0-12.83,4.93T644.25,201q0,8,4.57,12.91t12.83,4.93q8.26,0,12.83-4.93T679.05,201q0-8-4.57-12.9T661.65,183.21ZM287,205.61a31.3,31.3,0,0,0-7.11,1.23,15.81,15.81,0,0,0-5.8,3,7,7,0,0,0-2.39,5.65,6.22,6.22,0,0,0,3.33,5.8,14,14,0,0,0,7,1.88,21.84,21.84,0,0,0,6.16-.87,18.39,18.39,0,0,0,5.29-2.46,11.92,11.92,0,0,0,3.7-4.06,11.7,11.7,0,0,0,1.38-5.8v-4.64h-5.37Q290.74,205.39,287,205.61Zm160.73-25.88a16.34,16.34,0,0,0-6.38,1.16,16,16,0,0,0-4.71,3,13.06,13.06,0,0,0-3,4.21,13.84,13.84,0,0,0-1.23,5h28.71a12.6,12.6,0,0,0-3.62-9.42A12.89,12.89,0,0,0,447.78,179.73Zm-89.21-75.17V62c0-2.84-2.84-5.1-6.3-5.1h-6.42v52.62h6.42C355.73,109.55,358.57,107.3,358.57,104.55ZM948.76,219.46h-2.88V40.31l1.62-1.13a1.5,1.5,0,0,0-1.72-2.46l-1.37,1H204.59a1.49,1.49,0,0,0,.55-.72l1.31-3.67a1.5,1.5,0,1,0-2.83-1L202.31,36a1.5,1.5,0,0,0,.55,1.73H179.42a1.48,1.48,0,0,0-.27-.69,1.5,1.5,0,0,0-2.1-.32l-1.37,1h-.57L131.88,159,89.51,39.8l.94-.66a1.5,1.5,0,1,0-1.72-2.46l-1.42,1H53.43V35a1.5,1.5,0,0,0-3,0v2.71H18.67l.15-.1a1.5,1.5,0,1,0-1.72-2.46l-1.64,1.15a1.49,1.49,0,0,0-.62,1.42h0V246.12H67.9v-.27a1.47,1.47,0,0,0,.6-.2l1.7-1A1.5,1.5,0,1,0,68.63,242l-.72.45V222.34a1.5,1.5,0,0,0,0-2.77V116.95l34.28,102.78a1.49,1.49,0,0,0,.61,2.7,1.49,1.49,0,0,0,.11.22,1.47,1.47,0,0,0,.39.41l7.69,23h40.13l.22-.64,1.43-.88a1.49,1.49,0,0,0-.22-2.66l6.66-19.48h4.46a1.5,1.5,0,0,0,0-3h-3.44l35.53-103.89.12,80.34a1.5,1.5,0,0,0-1,.94l-1.24,3.62a1.5,1.5,0,0,0,.93,1.9,1.48,1.48,0,0,0,.49.08,1.5,1.5,0,0,0,.8-.24l.07,43.9H624.23v23.24H646V246.12H945.88V246h0a1.49,1.49,0,0,0,.83-.25l1.67-1.1a1.5,1.5,0,0,0-1.65-2.5l-.84.56V222.46h2.88a1.5,1.5,0,0,0,0-3ZM842.64,70.27c.4-2.33,2.42-4.55,5.86-6.42A33.78,33.78,0,0,1,860,60.28c3.25-.41,8-.54,12,1.18a13.22,13.22,0,0,1,5.16,4,8.34,8.34,0,0,0,4.45,3.08c6.83,2,14.8-2.53,17.91-4.57a35.18,35.18,0,0,0,5-4c1.07.64,2,1.28,2.84,1.81a38.31,38.31,0,0,1-6,4.94c-3.49,2.29-12.5,7.36-20.64,5a11.56,11.56,0,0,1-6-4.06,10,10,0,0,0-4-3.1c-5.77-2.45-15.24-.74-20.7,2.24-2.41,1.32-4,2.85-4.2,4.09s.57,3.8,7.91,8.53a156.29,156.29,0,0,0,16.3,8.69c1.45.7,2.93,1.37,4.36,2A88,88,0,0,1,883,94.36c-.86.71-1.72,1.48-2.57,2.3-2.16-1.21-4.78-2.41-7.37-3.6-1.45-.66-2.95-1.35-4.42-2.06C854.84,84.36,841.44,77.28,842.64,70.27Zm-117-8.15,7-7a1.22,1.22,0,0,1,1.73,0l.15.15a1.22,1.22,0,0,1,0,1.73l-7,7a1.22,1.22,0,0,1-1.73,0l-.15-.15A1.22,1.22,0,0,1,725.67,62.13Zm-9.77-10,7-7a1.22,1.22,0,0,1,1.73,0l.15.15a1.22,1.22,0,0,1,0,1.73l-7,7a1.22,1.22,0,0,1-1.73,0l-.15-.15A1.22,1.22,0,0,1,715.89,52.17Zm-14.42,7.1,8.4-8.4,19.06,19.06-8.4,8.4a9.19,9.19,0,0,1-13,0l-2.85-2.85-3.21-3.21a9.39,9.39,0,0,1-2.69-6.5A9.16,9.16,0,0,1,701.48,59.28Zm-63.19-9.74,10.08,2a3.68,3.68,0,0,1,1.9,1l19.94,19.94a2.75,2.75,0,0,1,0,3.89l-7,7a2.75,2.75,0,0,1-3.89,0l-20.8-20.8a3.68,3.68,0,0,1-.91-1.5l-2.46-7.84C634.47,50.9,636,49.09,638.29,49.54ZM506.16,53.79c0-1.67,1.73-3.14,4-3.14h10.25c7.91,0,14.21,5.1,14.21,11.37v13a10.13,10.13,0,0,1-4.32,8.13,10.31,10.31,0,0,1,4.32,8.23v22.83a1.78,1.78,0,0,1-2,1.57h-4a1.78,1.78,0,0,1-2-1.57V91.42c0-2.84-2.84-5.1-6.3-5.1h-6.3v27.93c0,.88-1,1.57-2,1.57h-4a1.78,1.78,0,0,1-2-1.57Zm-69,0c0-1.67,1.85-3.14,4-3.14h10.38c7.78,0,14.21,5.1,14.21,11.37v13a10.44,10.44,0,0,1-4.45,8.23,10.26,10.26,0,0,1,4.45,8.13v13.13c0,6.17-6.42,11.27-14.21,11.27H441.07c-2.1,0-4-1.37-4-3.14Zm-60.4,0c0-1.67,1.73-3.14,4-3.14h14.7a1.85,1.85,0,0,1,2,1.57v3.14a1.78,1.78,0,0,1-2,1.57H384.63V80.15h10.75a1.78,1.78,0,0,1,2,1.57v3.14a1.85,1.85,0,0,1-2,1.57H384.63v23.13h10.75a1.85,1.85,0,0,1,2,1.57v3.14a1.78,1.78,0,0,1-2,1.57h-14.7c-2.22,0-4-1.37-4-3.14Zm-38.78,0c0-1.67,1.85-3.14,4-3.14h10.38c7.91,0,14.21,5.1,14.21,11.37v42.53c0,6.17-6.3,11.27-14.21,11.27H341.89c-2.1,0-4-1.37-4-3.14Zm-49,0c0-1.67,1.73-3.14,4-3.14h14.7a1.85,1.85,0,0,1,2,1.57v3.14a1.78,1.78,0,0,1-2,1.57H296.81V80.15h10.75a1.78,1.78,0,0,1,2,1.57v3.14a1.85,1.85,0,0,1-2,1.57H296.81v23.13h10.75a1.85,1.85,0,0,1,2,1.57v3.14a1.78,1.78,0,0,1-2,1.57h-14.7c-2.22,0-4-1.37-4-3.14Zm-38.66,60.46v-62a1.85,1.85,0,0,1,2-1.57h4a1.85,1.85,0,0,1,2,1.57V80.15h12.72V52.23a1.85,1.85,0,0,1,2-1.57h3.83a1.85,1.85,0,0,1,2,1.57v62a1.78,1.78,0,0,1-2,1.57h-3.83a1.78,1.78,0,0,1-2-1.57V86.43H258.15v27.83a1.78,1.78,0,0,1-2,1.57h-4A1.78,1.78,0,0,1,250.25,114.26Zm68.34,122h-20v-8.84h-.29a20.47,20.47,0,0,1-9.64,8.12A33.17,33.17,0,0,1,276,238a32.72,32.72,0,0,1-9.5-1.38,23.93,23.93,0,0,1-8-4.13,19.93,19.93,0,0,1-5.51-6.82,20.78,20.78,0,0,1-2-9.42A21.6,21.6,0,0,1,253.12,206a20.11,20.11,0,0,1,6.09-7,30.23,30.23,0,0,1,8.77-4.28,64.23,64.23,0,0,1,10.22-2.25,98.1,98.1,0,0,1,10.58-.87q5.29-.14,9.79-.14a11.31,11.31,0,0,0-4.13-9.21,14.91,14.91,0,0,0-9.79-3.41,21.3,21.3,0,0,0-9.79,2.25,26.75,26.75,0,0,0-7.9,6.16l-11.6-11.89a39.91,39.91,0,0,1,14.21-8.48,50.78,50.78,0,0,1,16.82-2.83q9.57,0,15.73,2.39a22.88,22.88,0,0,1,9.86,7,27.11,27.11,0,0,1,5.15,11.38,74.76,74.76,0,0,1,1.45,15.59Zm9.1-122a1.78,1.78,0,0,1-2,1.57h-4a1.78,1.78,0,0,1-2-1.57v-62a1.85,1.85,0,0,1,2-1.57h4a1.85,1.85,0,0,1,2,1.57Zm50.34,122-23.78-35.67H354v35.67H332.21V126.66H354v67L378,165.81h26.68l-28,31.75,28.71,38.71ZM407.6,112.69V52.23a1.85,1.85,0,0,1,2-1.57h4c1,0,2,.78,2,1.57v57.33h10.62a1.85,1.85,0,0,1,2,1.57v3.14a1.78,1.78,0,0,1-2,1.57H411.55C409.33,115.82,407.6,114.45,407.6,112.69Zm75.27,95.17H432.41a17.21,17.21,0,0,0,5.66,9.93,16,16,0,0,0,10.73,3.7,16.34,16.34,0,0,0,9.06-2.39,24.35,24.35,0,0,0,6.45-6.16l15.22,11.17a34.69,34.69,0,0,1-13.19,10.29A39.56,39.56,0,0,1,449.81,238a44.41,44.41,0,0,1-15.3-2.61A36.78,36.78,0,0,1,422,227.94a35,35,0,0,1-8.34-11.67,39.59,39.59,0,0,1,0-30.45A35,35,0,0,1,422,174.14a36.81,36.81,0,0,1,12.47-7.47,44.41,44.41,0,0,1,15.3-2.61,34.8,34.8,0,0,1,13.7,2.61A28.55,28.55,0,0,1,474,174.14a34.08,34.08,0,0,1,6.6,11.67A47.11,47.11,0,0,1,482.87,201Zm-3-92c-2.22,0-4-1.37-4-3.14V53.79c0-1.67,1.73-3.14,4-3.14h14.7a1.85,1.85,0,0,1,2,1.57v3.14a1.78,1.78,0,0,1-2,1.57H483.81V80.15h10.75a1.78,1.78,0,0,1,2,1.57v3.14a1.85,1.85,0,0,1-2,1.57H483.81v23.13h10.75a1.85,1.85,0,0,1,2,1.57v3.14a1.78,1.78,0,0,1-2,1.57Zm65.8,68.83a33.12,33.12,0,0,0-4.57-1.09,29.75,29.75,0,0,0-4.71-.36q-6.24,0-9.86,1.74a13.1,13.1,0,0,0-5.58,4.86,18.45,18.45,0,0,0-2.54,7.47,72.7,72.7,0,0,0-.58,9.57v29.43H496.06V165.81h21.75v11.31h.29a26.73,26.73,0,0,1,8.27-9.79,20.89,20.89,0,0,1,12-3.26q1.88,0,3.77.14a18.81,18.81,0,0,1,3.48.58Zm-.83-80.1V61.93c0-6.17,6.42-11.27,14.21-11.27s14.2,5.1,14.2,11.27v3.33a1.78,1.78,0,0,1-2,1.57h-4a1.78,1.78,0,0,1-2-1.57V61.93c0-2.74-2.84-5-6.3-5s-6.3,2.25-6.3,5v42.63c0,2.74,2.84,5,6.3,5s6.3-2.25,6.3-5V86.23H561a1.78,1.78,0,0,1-2-1.57V81.53A1.78,1.78,0,0,1,561,80h10.25a1.78,1.78,0,0,1,2,1.57v23c0,6.17-6.42,11.27-14.2,11.27S544.82,110.73,544.82,104.55Zm63.25,121.5a22.8,22.8,0,0,1-7.61,7.11A32.74,32.74,0,0,1,590,236.93,62,62,0,0,1,578.57,238a55.45,55.45,0,0,1-14.93-2.1,27.88,27.88,0,0,1-12.76-7.47l13.19-14.64a21.88,21.88,0,0,0,6.74,5.73,18.18,18.18,0,0,0,8.63,2,20.15,20.15,0,0,0,6.82-1.09,4,4,0,0,0,3-4,4.42,4.42,0,0,0-2.68-4.13A29.5,29.5,0,0,0,579.8,210l-8.84-2a36.5,36.5,0,0,1-8.84-3.26,18.48,18.48,0,0,1-6.82-6.16q-2.69-4-2.68-10.66a21.49,21.49,0,0,1,2.54-10.73,22.3,22.3,0,0,1,6.67-7.39,28.88,28.88,0,0,1,9.5-4.28,43.56,43.56,0,0,1,10.88-1.38,51,51,0,0,1,14.07,2,26.11,26.11,0,0,1,12,7.25L595,186.54a15.4,15.4,0,0,0-12.61-5.94,11.86,11.86,0,0,0-5.37,1.3,4.62,4.62,0,0,0-2.61,4.5,4,4,0,0,0,2.68,3.84,35.41,35.41,0,0,0,6.82,2.17l8.84,2a33.29,33.29,0,0,1,8.84,3.41,19.82,19.82,0,0,1,6.82,6.31q2.68,4,2.68,10.66A19.74,19.74,0,0,1,608.08,226.05ZM614,113.38a3.28,3.28,0,0,1-4.75.11l-2.43-2.43a3.28,3.28,0,0,1,.09-4.74C613.1,100.58,629,85.89,633,81.82a99.65,99.65,0,0,0,8.66-10.17,1.37,1.37,0,0,1,2.07-.14l5.07,5.07a1.37,1.37,0,0,1-.1,2c-2.82,2.28-9.89,8-12.46,10.61S619.6,107.22,614,113.38ZM698.55,214.6a39,39,0,0,1-6.38,12,31.17,31.17,0,0,1-10.08,8.34A28.61,28.61,0,0,1,668.61,238a37.4,37.4,0,0,1-12.69-2.1,20.28,20.28,0,0,1-9.64-7.18H646v17.35H624.24V165.81h20v9.28h.29a24.07,24.07,0,0,1,3.41-3.84,25.74,25.74,0,0,1,4.93-3.55,30.74,30.74,0,0,1,6.16-2.61,24.33,24.33,0,0,1,7.11-1,36.33,36.33,0,0,1,14.21,2.68,31.73,31.73,0,0,1,10.95,7.54,33.66,33.66,0,0,1,7,11.53,42,42,0,0,1,2.47,14.64A44.42,44.42,0,0,1,698.55,214.6ZM707,117.08a3.74,3.74,0,0,1-.87-1.38c-1.48-4.1,2.23-7.5,3.45-8.62a69.13,69.13,0,0,1,9.79-6.85c2.31-1.44,4.49-2.79,6.28-4.11,1.14-.84,2.51-1.75,4-2.71,5.13-3.39,12.16-8,12.59-12.77.17-1.93-.74-3.83-2.8-5.8a4.37,4.37,0,0,0-3.47-1.4c-4.75.38-10.9,8.54-16.33,15.74-6,8-11.68,15.49-17.06,15.75s-8.91-1.27-10.45-4.54c-1.38-2.92-1-7.08,1.23-12a47.8,47.8,0,0,1,8-12.15,1.42,1.42,0,0,1,2.11,1.91c-6,6.69-11,16.4-8.79,21.06,1,2.13,3.61,3.11,7.75,2.91s9.83-7.85,14.92-14.62c6.35-8.42,12.35-16.38,18.37-16.87a7.15,7.15,0,0,1,5.67,2.18c2.69,2.57,3.92,5.3,3.66,8.11-.55,6.11-7.93,11-13.86,14.89-1.42.94-2.77,1.83-3.84,2.62-1.88,1.39-4.11,2.77-6.47,4.24-6.29,3.91-13.42,8.33-12.06,12.08.05.15.18.5.94.7,3.53,1,12.62-3,14.77-4.77a1.42,1.42,0,1,1,1.83,2.18,30.38,30.38,0,0,1-7.71,3.92c-2.88,1.05-6.89,2.15-9.62,1.42A4.37,4.37,0,0,1,707,117.08ZM777.8,236.28h-20v-8.84h-.29a20.47,20.47,0,0,1-9.64,8.12A33.17,33.17,0,0,1,735.17,238a32.72,32.72,0,0,1-9.5-1.38,23.93,23.93,0,0,1-8-4.13,19.93,19.93,0,0,1-5.51-6.82,20.78,20.78,0,0,1-2-9.42A21.6,21.6,0,0,1,712.33,206a20.11,20.11,0,0,1,6.09-7,30.23,30.23,0,0,1,8.77-4.28,64.23,64.23,0,0,1,10.22-2.25,98.1,98.1,0,0,1,10.58-.87q5.29-.14,9.79-.14a11.31,11.31,0,0,0-4.13-9.21,14.91,14.91,0,0,0-9.79-3.41,21.3,21.3,0,0,0-9.79,2.25,26.75,26.75,0,0,0-7.9,6.16l-11.6-11.89a39.91,39.91,0,0,1,14.21-8.48,50.78,50.78,0,0,1,16.82-2.83q9.57,0,15.73,2.39a22.88,22.88,0,0,1,9.86,7,27.11,27.11,0,0,1,5.15,11.38,74.76,74.76,0,0,1,1.45,15.59Zm3.62-113.63a20.22,20.22,0,0,1-7.14.22,12,12,0,0,1-5.67-2.2,7.64,7.64,0,0,1-3.05-7.54,7.81,7.81,0,0,1,2.2-4.24,13.35,13.35,0,0,1,4.55-3.12,22.74,22.74,0,0,1,10.22-1.82,16.64,16.64,0,0,1,4.73,1.1,13.22,13.22,0,0,1,4.7,3.1l.25.24,22.94-63.24,2.8,1-.16.45c-.31.86-.66,1.7-.92,2.58a24.75,24.75,0,0,0-.56,2.56,19.2,19.2,0,0,0-.29,4.84,23,23,0,0,0,1.09,5.19c.7,2.21,1.55,4.36,2.42,6.5a74.06,74.06,0,0,1,3.41,10,29.21,29.21,0,0,1,1,7.7,20.5,20.5,0,0,1-.73,5.17c-.33,1.16-.69,2.31-1.12,3.43A19.65,19.65,0,0,1,820.2,98a66.13,66.13,0,0,1-9.27,11.55,15.61,15.61,0,0,1-2.58,2.18,2.94,2.94,0,0,1-.59.28,1.1,1.1,0,0,1-.34,0l0-.06,1-1.1c1.87-2.14,3.75-4.27,5.6-6.44a38.41,38.41,0,0,0,3.29-4.45,19.11,19.11,0,0,0,2.18-4.85,28.3,28.3,0,0,0,1-11.15,17,17,0,0,0-1.46-5.54,21.37,21.37,0,0,0-2.85-4.32,29.11,29.11,0,0,0-4.87-4.81c-.32-.24-.66-.45-1-.66a2.56,2.56,0,0,0-.35-.15l-.09.21-7.58,20.68-9.1,24.88a7.42,7.42,0,0,1-1.34,2.19,17.27,17.27,0,0,1-4.62,4.06A19.08,19.08,0,0,1,781.41,122.64Zm34.15,91.3q4.57,4.93,12.83,4.93a11.71,11.71,0,0,0,6.23-1.59,19,19,0,0,0,4.5-3.77l14.36,15.08a27.74,27.74,0,0,1-12,7.32A45,45,0,0,1,828.4,238a44.41,44.41,0,0,1-15.3-2.61,36.78,36.78,0,0,1-12.47-7.47,35,35,0,0,1-8.34-11.67,39.59,39.59,0,0,1,0-30.45,35,35,0,0,1,8.34-11.67,36.81,36.81,0,0,1,12.47-7.47,44.41,44.41,0,0,1,15.3-2.61,45,45,0,0,1,13.12,2.1,27.76,27.76,0,0,1,12,7.32l-14.36,15.08a12.22,12.22,0,0,0-4.5-3.84,13.22,13.22,0,0,0-6.23-1.52q-8.26,0-12.83,4.93T811,201Q811,209,815.57,213.95Zm115.78-6.09H880.89a17.21,17.21,0,0,0,5.66,9.93,16,16,0,0,0,10.73,3.7,16.34,16.34,0,0,0,9.06-2.39,24.35,24.35,0,0,0,6.45-6.16L928,224.1a34.69,34.69,0,0,1-13.19,10.29A39.56,39.56,0,0,1,898.29,238a44.41,44.41,0,0,1-15.3-2.61,36.78,36.78,0,0,1-12.47-7.47,35,35,0,0,1-8.34-11.67,39.59,39.59,0,0,1,0-30.45,35,35,0,0,1,8.34-11.67A36.81,36.81,0,0,1,883,166.68a44.41,44.41,0,0,1,15.3-2.61,34.8,34.8,0,0,1,13.7,2.61,28.55,28.55,0,0,1,10.44,7.47,34.08,34.08,0,0,1,6.6,11.67A47.11,47.11,0,0,1,931.35,201ZM890.16,111.2c.11,1.16.54,1.78,2.55,4.47l1.52,2.06c5.39,7.38,5.73,8.92,5.19,10.48-.92,2.63-4.4,4.4-10.64,5.39l-.52-3.24c6.8-1.08,7.88-2.79,8-3.2-.07-.43-.7-2-4.73-7.49l-1.5-2c-1.61-2.16-2.5-3.36-2.92-4.75,1-.8,2-1.67,3-2.62A4.18,4.18,0,0,0,890.16,111.2Zm8.73-16.14c-.9,3.35-4,8.08-8.44,12.54-.34.34-.68.66-1,1-1,1-2,1.83-3,2.62-5.41,4.31-10.5,6.26-12.35,4.41-2.31-2.31,1.28-9.64,8-16.38.29-.29.58-.55.87-.83.86-.82,1.72-1.59,2.57-2.3a27,27,0,0,1,9-5.28l37.76-34.77.68.68ZM983,205.19a1.5,1.5,0,0,0-1.5,1.5v4.09a1.5,1.5,0,1,0,3,0v-4.09A1.5,1.5,0,0,0,983,205.19ZM888.5,98.26c-.81.61-1.68,1.32-2.57,2.12s-1.55,1.42-2.34,2.21c-4.61,4.61-7.56,9.13-6.59,10.1s5.13-1.75,9.53-6l.1-.1a12.58,12.58,0,0,1,.69-1.5,3.85,3.85,0,0,0,.62-1.7c0-1,.1-1.25-1.13-2.24.89-.79,1.8-1.43,2.61-2a4.05,4.05,0,0,1,1.57,2.67c2.22-2.82,3.35-5.1,2.7-5.75S891.07,96.32,888.5,98.26Zm7.75,81.47a16.34,16.34,0,0,0-6.38,1.16,16,16,0,0,0-4.71,3,13.06,13.06,0,0,0-3,4.21,13.84,13.84,0,0,0-1.23,5H909.6a12.6,12.6,0,0,0-3.62-9.42A12.89,12.89,0,0,0,896.26,179.73Zm-150,25.88a31.3,31.3,0,0,0-7.11,1.23,15.81,15.81,0,0,0-5.8,3,7,7,0,0,0-2.39,5.65,6.22,6.22,0,0,0,3.33,5.8,14,14,0,0,0,7,1.88,21.84,21.84,0,0,0,6.16-.87,18.39,18.39,0,0,0,5.29-2.46,11.92,11.92,0,0,0,3.7-4.06,11.7,11.7,0,0,0,1.38-5.8v-4.64h-5.37Q750,205.39,746.26,205.61ZM983,21.2a1.5,1.5,0,0,0-1.5,1.5v4.09a1.5,1.5,0,0,0,3,0V22.7A1.5,1.5,0,0,0,983,21.2ZM983,58a1.5,1.5,0,0,0-1.5,1.5v4.09a1.5,1.5,0,1,0,3,0V59.5A1.5,1.5,0,0,0,983,58Zm0,12.27a1.5,1.5,0,0,0-1.5,1.5v4.09a1.5,1.5,0,0,0,3,0V71.76A1.5,1.5,0,0,0,983,70.26Zm0,24.53a1.5,1.5,0,0,0-1.5,1.5v4.09a1.5,1.5,0,1,0,3,0V96.3A1.5,1.5,0,0,0,983,94.8Zm0,98.13a1.5,1.5,0,0,0-1.5,1.5v4.09a1.5,1.5,0,1,0,3,0v-4.09A1.5,1.5,0,0,0,983,192.93Zm0-110.4a1.5,1.5,0,0,0-1.5,1.5v4.09a1.5,1.5,0,1,0,3,0V84A1.5,1.5,0,0,0,983,82.53Zm0-49.07a1.5,1.5,0,0,0-1.5,1.5v4.09a1.5,1.5,0,0,0,3,0V35A1.5,1.5,0,0,0,983,33.46Zm1.5-21a1.49,1.49,0,0,0,0-.22s0-.05,0-.08a1.47,1.47,0,0,0,0-.16s0-.08,0-.12l-.05-.09a1.49,1.49,0,0,0-.09-.17h0l-.08-.09-.11-.13-.11-.09-.11-.09-.13-.07-.13-.07-.13,0-.15,0-.15,0H981a1.49,1.49,0,0,0-1.12,2.48,1.49,1.49,0,0,0,1.49,1.66,1.51,1.51,0,0,0,.27,0,1.5,1.5,0,0,0,2.87-.61v-2Zm-526.76,92V91.42c0-2.74-2.84-5-6.3-5H445v23.13h6.42C454.91,109.55,457.75,107.3,457.75,104.55ZM983,45.73a1.5,1.5,0,0,0-1.5,1.5v4.09a1.5,1.5,0,1,0,3,0V47.23A1.5,1.5,0,0,0,983,45.73ZM147.34,77.38l1.31,3.68a1.5,1.5,0,1,0,2.83-1l-1.31-3.68a1.5,1.5,0,1,0-2.83,1ZM983,107.06a1.5,1.5,0,0,0-1.5,1.5v4.09a1.5,1.5,0,0,0,3,0v-4.09A1.5,1.5,0,0,0,983,107.06Zm0,73.6a1.5,1.5,0,0,0-1.5,1.5v4.09a1.5,1.5,0,1,0,3,0v-4.09A1.5,1.5,0,0,0,983,180.66Zm0-12.27a1.5,1.5,0,0,0-1.5,1.5V174a1.5,1.5,0,1,0,3,0v-4.09A1.5,1.5,0,0,0,983,168.39Zm0-49.07a1.5,1.5,0,0,0-1.5,1.5v4.09a1.5,1.5,0,0,0,3,0v-4.09A1.5,1.5,0,0,0,983,119.33Zm0,12.27a1.5,1.5,0,0,0-1.5,1.5v4.09a1.5,1.5,0,0,0,3,0V133.1A1.5,1.5,0,0,0,983,131.6Zm0,12.27a1.5,1.5,0,0,0-1.5,1.5v4.09a1.5,1.5,0,0,0,3,0v-4.09A1.5,1.5,0,0,0,983,143.86Zm0,12.27a1.5,1.5,0,0,0-1.5,1.5v4.09a1.5,1.5,0,0,0,3,0v-4.09A1.5,1.5,0,0,0,983,156.13ZM95.9,35a1.5,1.5,0,0,0,.86-.27l3.16-2.21a1.5,1.5,0,1,0-1.72-2.46L95,32.27A1.5,1.5,0,0,0,95.9,35ZM457.75,75.06V62c0-2.84-2.84-5.1-6.3-5.1H445V80.15h6.42C454.91,80.15,457.75,77.9,457.75,75.06ZM74.5,14h4.12a1.5,1.5,0,0,0,0-3H74.5a1.5,1.5,0,0,0,0,3ZM41.59,21.33a1.5,1.5,0,0,0,.86-.27l3-2.06a1.5,1.5,0,1,0-1.72-2.46l-3,2.06a1.5,1.5,0,0,0,.86,2.73Zm10.34-.13a1.5,1.5,0,0,0-1.5,1.5v4.09a1.5,1.5,0,0,0,3,0V22.7A1.5,1.5,0,0,0,51.93,21.2ZM62.16,14h4.12a1.5,1.5,0,0,0,0-3H62.16a1.5,1.5,0,1,0,0,3Zm42,13.72a1.5,1.5,0,0,0,2.09.37l3.16-2.21a1.5,1.5,0,1,0-1.72-2.46l-3.16,2.21A1.5,1.5,0,0,0,104.15,27.74Zm-53.7-12.6.1,0a1.5,1.5,0,0,0,2.87-.6V14h.5a1.5,1.5,0,0,0,0-3H52.38a1.82,1.82,0,0,0-1.61.56l-1.18.82a1.5,1.5,0,0,0,.86,2.73ZM99.2,14h4.12a1.5,1.5,0,0,0,0-3H99.2a1.5,1.5,0,0,0,0,3Zm36.4,30.29L136.9,48a1.5,1.5,0,1,0,2.83-1l-1.31-3.68a1.5,1.5,0,1,0-2.83,1Zm3.92,11L140.82,59a1.5,1.5,0,1,0,2.83-1l-1.31-3.68a1.5,1.5,0,1,0-2.83,1Zm-7.83-22L133,37a1.5,1.5,0,1,0,2.83-1l-1.31-3.67a1.5,1.5,0,1,0-2.83,1Zm11.75,33.07L144.73,70a1.5,1.5,0,1,0,2.83-1l-1.31-3.68a1.5,1.5,0,1,0-2.83,1ZM111.54,14h4.12a1.5,1.5,0,0,0,0-3h-4.12a1.5,1.5,0,0,0,0,3ZM114,19a1.5,1.5,0,0,0,1.72,2.46l3.16-2.21a1.5,1.5,0,1,0-1.72-2.46Zm13.77,3.23,1.31,3.67a1.5,1.5,0,1,0,2.83-1l-1.31-3.67a1.5,1.5,0,1,0-2.83,1Zm-4.66-7.76a1.48,1.48,0,0,0,2,.39v0a1.5,1.5,0,0,0,2.83-1l-.51-1.44a1.5,1.5,0,0,0-1.8-1.45h-1.78a1.5,1.5,0,0,0-1.06,2.56A1.49,1.49,0,0,0,123.1,14.49ZM86.85,14H91a1.5,1.5,0,0,0,0-3H86.85a1.5,1.5,0,0,0,0,3Zm73.81,222.17-3.16,2a1.5,1.5,0,0,0,1.58,2.55l3.16-2a1.5,1.5,0,1,0-1.58-2.55Zm19-11.7-3.16,2A1.5,1.5,0,0,0,178,229l3.16-2a1.5,1.5,0,1,0-1.58-2.55Zm-9.48,5.85-3.16,2a1.5,1.5,0,0,0,1.58,2.55l3.16-2a1.5,1.5,0,0,0-1.58-2.55Zm8.57-9.38a1.5,1.5,0,0,0-1.5-1.5H172.7a1.5,1.5,0,0,0,0,3h4.52A1.5,1.5,0,0,0,178.71,221Zm10.66-3.31a1.5,1.5,0,0,0-1.91.93l-.3.88h-.93a2,2,0,1,0,1.28,3.69l1.44-.89a1.48,1.48,0,0,0,.2-.13l.06,0a1.49,1.49,0,0,0,.7-1.41l.39-1.13A1.5,1.5,0,0,0,189.38,217.65ZM526.67,75.06V62c0-2.84-2.84-5.1-6.3-5.1h-6.3V80.06h6.3C523.83,80.06,526.67,77.8,526.67,75.06ZM193.1,206.78a1.5,1.5,0,0,0-1.9.93L190,211.34a1.5,1.5,0,0,0,.93,1.9,1.48,1.48,0,0,0,.49.08,1.5,1.5,0,0,0,1.42-1l1.24-3.62A1.5,1.5,0,0,0,193.1,206.78ZM23.87,33.71a1.5,1.5,0,0,0,.86-.27l3-2.06A1.5,1.5,0,1,0,26,28.92L23,31a1.5,1.5,0,0,0,.86,2.73ZM87.59,230.34l-3.16,2A1.5,1.5,0,0,0,86,234.85l3.16-2a1.5,1.5,0,0,0-1.58-2.55Zm-6.87-10.88H76.25a1.5,1.5,0,0,0,0,3h4.46a1.5,1.5,0,1,0,0-3Zm-2.61,16.73-3.16,2a1.5,1.5,0,0,0,1.58,2.55l3.16-2a1.5,1.5,0,1,0-1.58-2.55Zm19-11.7-3.16,2A1.5,1.5,0,0,0,95.48,229l3.16-2a1.5,1.5,0,0,0-1.58-2.55Zm-64.34-197a1.5,1.5,0,0,0,.86-.27l3-2.06a1.5,1.5,0,0,0-1.72-2.46l-3,2.06a1.5,1.5,0,0,0,.86,2.73ZM89.65,222.46h4.46a1.5,1.5,0,1,0,0-3H89.65a1.5,1.5,0,0,0,0,3Z" transform="translate(-14.79 -10.99)" style="fill:#e30613"/></svg>