<svg xmlns="http://www.w3.org/2000/svg" viewBox="0 0 273.47 235.01"><title>Makerspace_Icon</title><path d="M42.44,29.42a1.5,1.5,0,0,0,.31,0,1.5,1.5,0,0,0,2.87-.6v-.5h.5a1.5,1.5,0,0,0,0-3h-2a1.5,1.5,0,0,0-.87.27l-1.64,1.15a1.5,1.5,0,0,0,.86,2.73Z" transform="translate(-6.25 -25.28)" style="fill:#e30613"/><path d="M79.06,28.28h4.12a1.5,1.5,0,0,0,0-3H79.06a1.5,1.5,0,0,0,0,3Z" transform="translate(-6.25 -25.28)" style="fill:#e30613"/><path d="M91.4,28.28h4.12a1.5,1.5,0,0,0,0-3H91.4a1.5,1.5,0,0,0,0,3Z" transform="translate(-6.25 -25.28)" style="fill:#e30613"/><path d="M54.37,28.28h4.12a1.5,1.5,0,0,0,0-3H54.37a1.5,1.5,0,0,0,0,3Z" transform="translate(-6.25 -25.28)" style="fill:#e30613"/><path d="M103.75,28.28h4.12a1.5,1.5,0,0,0,0-3h-4.12a1.5,1.5,0,0,0,0,3Z" transform="translate(-6.25 -25.28)" style="fill:#e30613"/><path d="M66.71,28.28h4.12a1.5,1.5,0,0,0,0-3H66.71a1.5,1.5,0,0,0,0,3Z" transform="translate(-6.25 -25.28)" style="fill:#e30613"/><path d="M139.55,91.64l1.31,3.68a1.5,1.5,0,0,0,2.83-1l-1.31-3.67a1.5,1.5,0,1,0-2.83,1Z" transform="translate(-6.25 -25.28)" style="fill:#e30613"/><path d="M127.8,58.56l1.31,3.67a1.5,1.5,0,1,0,2.83-1l-1.31-3.68a1.5,1.5,0,0,0-2.83,1Z" transform="translate(-6.25 -25.28)" style="fill:#e30613"/><path d="M135.63,80.61l1.31,3.67a1.5,1.5,0,1,0,2.83-1l-1.31-3.67a1.5,1.5,0,1,0-2.83,1Z" transform="translate(-6.25 -25.28)" style="fill:#e30613"/><path d="M123.88,47.54l1.31,3.67a1.5,1.5,0,1,0,2.83-1l-1.31-3.67a1.5,1.5,0,1,0-2.83,1Z" transform="translate(-6.25 -25.28)" style="fill:#e30613"/><path d="M131.72,69.59,133,73.26a1.5,1.5,0,1,0,2.83-1l-1.31-3.67a1.5,1.5,0,0,0-2.83,1Z" transform="translate(-6.25 -25.28)" style="fill:#e30613"/><path d="M120,36.51l1.31,3.67a1.5,1.5,0,1,0,2.83-1l-1.31-3.68a1.5,1.5,0,0,0-2.83,1Z" transform="translate(-6.25 -25.28)" style="fill:#e30613"/><path d="M198.44,39.18a1.5,1.5,0,1,0,2.83,1l1.31-3.68a1.5,1.5,0,1,0-2.83-1Z" transform="translate(-6.25 -25.28)" style="fill:#e30613"/><path d="M203.28,30.07a1.47,1.47,0,0,0,1.81-.71,1.47,1.47,0,0,0,.48-.21l1.38-1a1.5,1.5,0,0,0-.49-2.91h-2a1.5,1.5,0,0,0-1.41,1l-.67,1.88A1.5,1.5,0,0,0,203.28,30.07Z" transform="translate(-6.25 -25.28)" style="fill:#e30613"/><path d="M214.66,28.28h4.1a1.5,1.5,0,0,0,0-3h-4.1a1.5,1.5,0,0,0,0,3Z" transform="translate(-6.25 -25.28)" style="fill:#e30613"/><path d="M243.39,25.28h-4.1a1.5,1.5,0,0,0,0,3h4.1a1.5,1.5,0,0,0,0-3Z" transform="translate(-6.25 -25.28)" style="fill:#e30613"/><path d="M263.91,28.28H268a1.5,1.5,0,0,0,0-3h-4.1a1.5,1.5,0,0,0,0,3Z" transform="translate(-6.25 -25.28)" style="fill:#e30613"/><path d="M257.2,26.78a1.5,1.5,0,0,0-1.5-1.5h-4.1a1.5,1.5,0,0,0,0,3h4.1A1.5,1.5,0,0,0,257.2,26.78Z" transform="translate(-6.25 -25.28)" style="fill:#e30613"/><path d="M227,28.28h4.1a1.5,1.5,0,0,0,0-3H227a1.5,1.5,0,0,0,0,3Z" transform="translate(-6.25 -25.28)" style="fill:#e30613"/><path d="M279.72,26.76a1.49,1.49,0,0,0,0-.21s0-.06,0-.09,0-.09,0-.13a1.49,1.49,0,0,0,0-.15l0-.06a1.5,1.5,0,0,0-.11-.2h0l-.06-.07-.12-.15-.11-.09-.12-.09-.13-.07-.12-.06-.15,0-.13,0-.19,0h-2.09a1.49,1.49,0,0,0-1.12,2.48,1.49,1.49,0,0,0,1.49,1.66,1.52,1.52,0,0,0,.27,0,1.5,1.5,0,0,0,2.87-.61v-2Z" transform="translate(-6.25 -25.28)" style="fill:#e30613"/><path d="M278.22,158.12a1.5,1.5,0,0,0-1.5,1.5v4.09a1.5,1.5,0,0,0,3,0v-4.09A1.5,1.5,0,0,0,278.22,158.12Z" transform="translate(-6.25 -25.28)" style="fill:#e30613"/><path d="M278.22,194.92a1.5,1.5,0,0,0-1.5,1.5v4.09a1.5,1.5,0,0,0,3,0v-4.09A1.5,1.5,0,0,0,278.22,194.92Z" transform="translate(-6.25 -25.28)" style="fill:#e30613"/><path d="M278.22,72.25a1.5,1.5,0,0,0-1.5,1.5v4.09a1.5,1.5,0,1,0,3,0V73.75A1.5,1.5,0,0,0,278.22,72.25Z" transform="translate(-6.25 -25.28)" style="fill:#e30613"/><path d="M278.22,170.38a1.5,1.5,0,0,0-1.5,1.5V176a1.5,1.5,0,0,0,3,0v-4.09A1.5,1.5,0,0,0,278.22,170.38Z" transform="translate(-6.25 -25.28)" style="fill:#e30613"/><path d="M278.22,182.65a1.5,1.5,0,0,0-1.5,1.5v4.09a1.5,1.5,0,0,0,3,0v-4.09A1.5,1.5,0,0,0,278.22,182.65Z" transform="translate(-6.25 -25.28)" style="fill:#e30613"/><path d="M278.22,145.85a1.5,1.5,0,0,0-1.5,1.5v4.09a1.5,1.5,0,0,0,3,0v-4.09A1.5,1.5,0,0,0,278.22,145.85Z" transform="translate(-6.25 -25.28)" style="fill:#e30613"/><path d="M278.22,133.58a1.5,1.5,0,0,0-1.5,1.5v4.09a1.5,1.5,0,0,0,3,0v-4.09A1.5,1.5,0,0,0,278.22,133.58Z" transform="translate(-6.25 -25.28)" style="fill:#e30613"/><path d="M278.22,121.32a1.5,1.5,0,0,0-1.5,1.5v4.09a1.5,1.5,0,1,0,3,0v-4.09A1.5,1.5,0,0,0,278.22,121.32Z" transform="translate(-6.25 -25.28)" style="fill:#e30613"/><path d="M278.22,109.05a1.5,1.5,0,0,0-1.5,1.5v4.09a1.5,1.5,0,0,0,3,0v-4.09A1.5,1.5,0,0,0,278.22,109.05Z" transform="translate(-6.25 -25.28)" style="fill:#e30613"/><path d="M278.22,84.52a1.5,1.5,0,0,0-1.5,1.5v4.09a1.5,1.5,0,0,0,3,0V86A1.5,1.5,0,0,0,278.22,84.52Z" transform="translate(-6.25 -25.28)" style="fill:#e30613"/><path d="M278.22,219.45a1.5,1.5,0,0,0-1.5,1.5V225a1.5,1.5,0,0,0,3,0v-4.09A1.5,1.5,0,0,0,278.22,219.45Z" transform="translate(-6.25 -25.28)" style="fill:#e30613"/><path d="M278.22,47.72a1.5,1.5,0,0,0-1.5,1.5v4.09a1.5,1.5,0,0,0,3,0V49.22A1.5,1.5,0,0,0,278.22,47.72Z" transform="translate(-6.25 -25.28)" style="fill:#e30613"/><path d="M278.22,35.45a1.5,1.5,0,0,0-1.5,1.5V41a1.5,1.5,0,1,0,3,0V37A1.5,1.5,0,0,0,278.22,35.45Z" transform="translate(-6.25 -25.28)" style="fill:#e30613"/><path d="M278.22,207.18a1.5,1.5,0,0,0-1.5,1.5v4.09a1.5,1.5,0,1,0,3,0v-4.09A1.5,1.5,0,0,0,278.22,207.18Z" transform="translate(-6.25 -25.28)" style="fill:#e30613"/><path d="M278.22,96.79a1.5,1.5,0,0,0-1.5,1.5v4.09a1.5,1.5,0,0,0,3,0V98.29A1.5,1.5,0,0,0,278.22,96.79Z" transform="translate(-6.25 -25.28)" style="fill:#e30613"/><path d="M278.22,60a1.5,1.5,0,0,0-1.5,1.5v4.09a1.5,1.5,0,1,0,3,0V61.49A1.5,1.5,0,0,0,278.22,60Z" transform="translate(-6.25 -25.28)" style="fill:#e30613"/><path d="M278.22,231.72a1.5,1.5,0,0,0-1.5,1.5v.5h-.5a1.49,1.49,0,0,0-1.19,2.4,1.5,1.5,0,0,0,2.27,1.42l1.7-1,0,0,.14-.11.09-.08.1-.11.09-.11.07-.13.07-.12s0-.09,0-.14,0-.09,0-.14,0-.09,0-.13a1.5,1.5,0,0,0,0-.17v-2A1.5,1.5,0,0,0,278.22,231.72Z" transform="translate(-6.25 -25.28)" style="fill:#e30613"/><path d="M254,233.72h-4.45a1.5,1.5,0,0,0,0,3H254a1.5,1.5,0,0,0,0-3Z" transform="translate(-6.25 -25.28)" style="fill:#e30613"/><path d="M268.82,235.22a1.5,1.5,0,0,0-1.5-1.5h-4.45a1.5,1.5,0,0,0,0,3h4.45A1.5,1.5,0,0,0,268.82,235.22Z" transform="translate(-6.25 -25.28)" style="fill:#e30613"/><path d="M185.3,221a1.5,1.5,0,0,0-1.9.93l-1.24,3.62a1.5,1.5,0,0,0,.93,1.9,1.48,1.48,0,0,0,.49.08,1.5,1.5,0,0,0,1.42-1l1.24-3.62A1.5,1.5,0,0,0,185.3,221Z" transform="translate(-6.25 -25.28)" style="fill:#e30613"/><path d="M181.59,231.9a1.49,1.49,0,0,0-1.9.93l-.3.88h-.93a2,2,0,1,0,1.07,3.72l1.24-.77a1.48,1.48,0,0,0,1.11-1l.65-1.89A1.5,1.5,0,0,0,181.59,231.9Z" transform="translate(-6.25 -25.28)" style="fill:#e30613"/><path d="M170.92,235.22a1.5,1.5,0,0,0-1.5-1.5h-4.52a1.5,1.5,0,0,0,0,3h4.52A1.5,1.5,0,0,0,170.92,235.22Z" transform="translate(-6.25 -25.28)" style="fill:#e30613"/><path d="M81.85,236.72h4.46a1.5,1.5,0,1,0,0-3H81.85a1.5,1.5,0,0,0,0,3Z" transform="translate(-6.25 -25.28)" style="fill:#e30613"/><path d="M72.92,233.72H68.46a1.5,1.5,0,0,0,0,3h4.46a1.5,1.5,0,0,0,0-3Z" transform="translate(-6.25 -25.28)" style="fill:#e30613"/><path d="M44.13,35.45a1.5,1.5,0,0,0-1.5,1.5V41a1.5,1.5,0,1,0,3,0V37A1.5,1.5,0,0,0,44.13,35.45Z" transform="translate(-6.25 -25.28)" style="fill:#e30613"/><path d="M33.58,35.61a1.5,1.5,0,0,0,.86-.27l3-2.06a1.5,1.5,0,1,0-1.72-2.46l-3,2.06a1.5,1.5,0,0,0,.86,2.73Z" transform="translate(-6.25 -25.28)" style="fill:#e30613"/><path d="M15.86,48a1.5,1.5,0,0,0,.86-.27l3-2.06A1.5,1.5,0,1,0,18,43.21l-3,2.06A1.5,1.5,0,0,0,15.86,48Z" transform="translate(-6.25 -25.28)" style="fill:#e30613"/><path d="M24.72,41.81a1.5,1.5,0,0,0,.86-.27l3-2.06A1.5,1.5,0,0,0,26.82,37l-3,2.06a1.5,1.5,0,0,0,.86,2.73Z" transform="translate(-6.25 -25.28)" style="fill:#e30613"/><path d="M115.09,28.78a1.5,1.5,0,0,0,2.09.37l.14-.09,0,.11a1.5,1.5,0,1,0,2.83-1l-.67-1.88a1.5,1.5,0,0,0-1.41-1h-2a1.5,1.5,0,0,0-1.24,2.34A1.49,1.49,0,0,0,115.09,28.78Z" transform="translate(-6.25 -25.28)" style="fill:#e30613"/><path d="M106,33.31a1.5,1.5,0,0,0,1.72,2.46l3.16-2.21a1.5,1.5,0,1,0-1.72-2.46Z" transform="translate(-6.25 -25.28)" style="fill:#e30613"/><path d="M96.14,42a1.5,1.5,0,0,0,2.09.37l3.16-2.21a1.5,1.5,0,0,0-1.72-2.46l-3.16,2.21A1.5,1.5,0,0,0,96.14,42Z" transform="translate(-6.25 -25.28)" style="fill:#e30613"/><path d="M87.9,49.29a1.5,1.5,0,0,0,.86-.27l3.16-2.21a1.5,1.5,0,0,0-1.72-2.46L87,46.56a1.5,1.5,0,0,0,.86,2.73Z" transform="translate(-6.25 -25.28)" style="fill:#e30613"/><path d="M195.23,36a1.5,1.5,0,0,0,.86-.27l3.16-2.21a1.5,1.5,0,0,0-1.72-2.46l-3.16,2.21a1.5,1.5,0,0,0,.86,2.73Z" transform="translate(-6.25 -25.28)" style="fill:#e30613"/><path d="M176.28,49.29a1.5,1.5,0,0,0,.86-.27l3.16-2.21a1.5,1.5,0,1,0-1.72-2.46l-3.16,2.21a1.5,1.5,0,0,0,.86,2.73Z" transform="translate(-6.25 -25.28)" style="fill:#e30613"/><path d="M185.76,42.67a1.5,1.5,0,0,0,.86-.27l3.16-2.21a1.5,1.5,0,1,0-1.72-2.46l-3.16,2.21a1.5,1.5,0,0,0,.86,2.73Z" transform="translate(-6.25 -25.28)" style="fill:#e30613"/><path d="M269.4,31.11l-3.16,2.21A1.5,1.5,0,0,0,268,35.77l3.16-2.21a1.5,1.5,0,0,0-1.72-2.46Z" transform="translate(-6.25 -25.28)" style="fill:#e30613"/><path d="M248.16,49.29A1.5,1.5,0,0,0,249,49l3.16-2.21a1.5,1.5,0,1,0-1.72-2.46l-3.16,2.21a1.5,1.5,0,0,0,.86,2.73Z" transform="translate(-6.25 -25.28)" style="fill:#e30613"/><path d="M256.4,42a1.5,1.5,0,0,0,2.09.37l3.16-2.21a1.5,1.5,0,1,0-1.72-2.46l-3.16,2.21A1.5,1.5,0,0,0,256.4,42Z" transform="translate(-6.25 -25.28)" style="fill:#e30613"/><path d="M241.06,54.58l1.64-1.15A1.5,1.5,0,1,0,241,51l-1.25.88H196.88a1.48,1.48,0,0,0,.46-.64l1.31-3.67a1.5,1.5,0,0,0-2.83-1l-1.31,3.67a1.5,1.5,0,0,0,.44,1.64H171.42a1.49,1.49,0,0,0-2.31-.88l-1.25.88h-1.28l-19,53.36-1.26-3.56a1.5,1.5,0,0,0-2.83,1l1.31,3.67a1.5,1.5,0,0,0,1.92.91l.17-.08-23.53,66.05L81.11,54.37l1.33-.93A1.5,1.5,0,1,0,80.72,51l-1.25.88H45.63V49.22a1.5,1.5,0,0,0-3,0v2.63H10.83A1.5,1.5,0,0,0,9.1,49.4L7.46,50.55a1.5,1.5,0,0,0-.64,1.3H6.25V260.29H59.36v-.17a1.47,1.47,0,0,0,1.13-.18l1.7-1a1.5,1.5,0,0,0-1.58-2.55l-1.26.78V236.72h.17a1.5,1.5,0,0,0,0-3h-.17V131.12L93.88,234.61a1.49,1.49,0,0,0-.13.61,1.48,1.48,0,0,0,.76,1.28l7.94,23.79h40.13l.06-.18a1.49,1.49,0,0,0,.42-.17l1.7-1a1.5,1.5,0,0,0-.76-2.77l6.69-19.56a1.48,1.48,0,0,0,.67.16h4.52a1.5,1.5,0,0,0,0-3h-4.21l35.56-104,.12,80.95a1.49,1.49,0,0,0-.23.42l-1.24,3.62a1.5,1.5,0,0,0,.93,1.9,1.48,1.48,0,0,0,.49.08h.06l.07,43.58h52.91v-.06a1.47,1.47,0,0,0,.5-.18l1.7-1a1.5,1.5,0,0,0-1.57-2.55l-.63.39V236.72h.31a1.5,1.5,0,0,0,0-3h-.31V54.83A1.47,1.47,0,0,0,241.06,54.58Zm-6.71,184.61a1.06,1.06,0,0,1-.93,1.17H216.95v7.53h16.47a1.06,1.06,0,0,1,.93,1.17v2.34a1.06,1.06,0,0,1-.93,1.17H196.7a1.1,1.1,0,0,1-.93-1.17v-2.34a1.1,1.1,0,0,1,.93-1.17h16.53v-7.53H196.7a1.1,1.1,0,0,1-.93-1.17v-2.27a1.1,1.1,0,0,1,.93-1.17h36.71a1.06,1.06,0,0,1,.93,1.17Zm0-11.84a2.11,2.11,0,0,1-1.86,2.34H197.63a2.15,2.15,0,0,1-1.86-2.34v-8.7a1.1,1.1,0,0,1,.93-1.17h1.86a1.06,1.06,0,0,1,.93,1.17V225h13.75v-6.36a1.06,1.06,0,0,1,.93-1.17H216a1.1,1.1,0,0,1,.93,1.17V225h13.69v-6.36a1.1,1.1,0,0,1,.93-1.17h1.86a1.06,1.06,0,0,1,.93,1.17Zm0-17.11a1.06,1.06,0,0,1-.93,1.17H196.7a1.1,1.1,0,0,1-.93-1.17V207.9a1.1,1.1,0,0,1,.93-1.17h36.71a1.06,1.06,0,0,1,.93,1.17Zm0-11.92a2.16,2.16,0,0,1-1.86,2.34H197.63a2.2,2.2,0,0,1-1.86-2.34v-6.14c0-4.68,3-8.41,6.73-8.41h25.17c3.65,0,6.67,3.73,6.67,8.41Zm0-23a2.11,2.11,0,0,1-1.86,2.34H197.63a2.15,2.15,0,0,1-1.86-2.34v-8.7a1.1,1.1,0,0,1,.93-1.17h1.86a1.06,1.06,0,0,1,.93,1.17V173h13.75v-6.36a1.06,1.06,0,0,1,.93-1.17H216a1.1,1.1,0,0,1,.93,1.17V173h13.69v-6.36a1.1,1.1,0,0,1,.93-1.17h1.86a1.06,1.06,0,0,1,.93,1.17Zm0-18.28a2.11,2.11,0,0,1-1.86,2.34H196.7a1.1,1.1,0,0,1-.93-1.17v-2.34c0-.58.46-1.17.93-1.17h33.93v-6.29a1.1,1.1,0,0,1,.93-1.17h1.86a1.06,1.06,0,0,1,.93,1.17Zm0-17.47a2.16,2.16,0,0,1-1.86,2.34H197.63a2.2,2.2,0,0,1-1.86-2.34v-6.14c0-4.61,3-8.41,6.73-8.41h7.71a6.18,6.18,0,0,1,4.87,2.63,6.08,6.08,0,0,1,4.81-2.63h7.77c3.65,0,6.67,3.8,6.67,8.41Zm0-23a2.11,2.11,0,0,1-1.86,2.34H197.63a2.15,2.15,0,0,1-1.86-2.34V108a1.1,1.1,0,0,1,.93-1.17h1.86a1.06,1.06,0,0,1,.93,1.17v6.36h13.75V108a1.06,1.06,0,0,1,.93-1.17H216a1.1,1.1,0,0,1,.93,1.17v6.36h13.69V108a1.1,1.1,0,0,1,.93-1.17h1.86a1.06,1.06,0,0,1,.93,1.17Zm0-28.88a1.06,1.06,0,0,1-.93,1.17H219.9c-1.68,0-3,1.68-3,3.73v3.73h16.53c.52,0,.93.58.93,1.17v2.34a1.06,1.06,0,0,1-.93,1.17H197.63a2.15,2.15,0,0,1-1.86-2.34V92.69c0-4.68,3-8.41,6.73-8.41h7.71A6,6,0,0,1,215,86.84a6.1,6.1,0,0,1,4.87-2.56h13.51a1.06,1.06,0,0,1,.93,1.17Zm-6.67-9.58H202.45c-3.65,0-6.67-3.8-6.67-8.41s3-8.41,6.67-8.41h2a1.06,1.06,0,0,1,.93,1.17v2.34a1.06,1.06,0,0,1-.93,1.17h-2c-1.62,0-3,1.68-3,3.73s1.33,3.73,3,3.73h25.23c1.62,0,3-1.68,3-3.73s-1.33-3.73-3-3.73H216.83v2.56a1.06,1.06,0,0,1-.93,1.17H214a1.06,1.06,0,0,1-.93-1.17V62.57A1.06,1.06,0,0,1,214,61.4h13.63c3.65,0,6.67,3.8,6.67,8.41S231.33,78.21,227.67,78.21Z" transform="translate(-6.25 -25.28)" style="fill:#e30613"/><path d="M250.44,250.59l-3.16,2a1.5,1.5,0,0,0,1.58,2.55l3.16-2a1.5,1.5,0,1,0-1.58-2.55Z" transform="translate(-6.25 -25.28)" style="fill:#e30613"/><path d="M259.93,244.74l-3.16,2a1.5,1.5,0,0,0,1.58,2.55l3.16-2a1.5,1.5,0,1,0-1.58-2.55Z" transform="translate(-6.25 -25.28)" style="fill:#e30613"/><path d="M269.41,238.89l-3.16,2a1.5,1.5,0,0,0,1.58,2.55l3.16-2a1.5,1.5,0,1,0-1.58-2.55Z" transform="translate(-6.25 -25.28)" style="fill:#e30613"/><path d="M162.14,244.63l-3.16,2a1.5,1.5,0,1,0,1.58,2.55l3.16-2a1.5,1.5,0,0,0-1.58-2.55Z" transform="translate(-6.25 -25.28)" style="fill:#e30613"/><path d="M152.66,250.48l-3.16,2a1.5,1.5,0,1,0,1.58,2.55l3.16-2a1.5,1.5,0,1,0-1.58-2.55Z" transform="translate(-6.25 -25.28)" style="fill:#e30613"/><path d="M171.62,238.78l-3.16,2a1.5,1.5,0,0,0,1.58,2.55l3.16-2a1.5,1.5,0,0,0-1.58-2.55Z" transform="translate(-6.25 -25.28)" style="fill:#e30613"/><path d="M70.1,250.48l-3.16,1.95A1.5,1.5,0,1,0,68.52,255L71.68,253a1.5,1.5,0,1,0-1.58-2.55Z" transform="translate(-6.25 -25.28)" style="fill:#e30613"/><path d="M79.58,244.63l-3.16,2A1.5,1.5,0,1,0,78,249.13l3.16-2a1.5,1.5,0,1,0-1.58-2.55Z" transform="translate(-6.25 -25.28)" style="fill:#e30613"/><path d="M89.06,238.78l-3.16,2a1.5,1.5,0,1,0,1.58,2.55l3.16-2a1.5,1.5,0,1,0-1.58-2.55Z" transform="translate(-6.25 -25.28)" style="fill:#e30613"/><path d="M227.67,129.75H219.9c-1.62,0-3,1.68-3,3.73v3.8h13.69v-3.8C230.63,131.43,229.3,129.75,227.67,129.75Z" transform="translate(-6.25 -25.28)" style="fill:#e30613"/><path d="M227.67,188.45H202.5c-1.68,0-3,1.68-3,3.73V196h31.15v-3.8C230.63,190.14,229.3,188.45,227.67,188.45Z" transform="translate(-6.25 -25.28)" style="fill:#e30613"/><path d="M210.22,89H202.5c-1.68,0-3,1.68-3,3.73v3.73h13.69V92.69C213.17,90.64,211.84,89,210.22,89Z" transform="translate(-6.25 -25.28)" style="fill:#e30613"/><path d="M210.22,129.75H202.5c-1.68,0-3,1.68-3,3.73v3.8h13.75v-3.8C213.23,131.43,211.9,129.75,210.22,129.75Z" transform="translate(-6.25 -25.28)" style="fill:#e30613"/></svg>